<svg version="1.1" xmlns="http://www.w3.org/2000/svg" viewBox="0 0 483.75001525878906 334.49998474121094" width="967.5000305175781" height="668.9999694824219" filter="invert(93%) hue-rotate(180deg)">
  <!-- svg-source:excalidraw -->
  
  <defs>
    <style class="style-fonts">
      @font-face {
        font-family: "Virgil";
        src: url("https://excalidraw.com/Virgil.woff2");
      }
      @font-face {
        font-family: "Cascadia";
        src: url("https://excalidraw.com/Cascadia.woff2");
      }
      @font-face {
        font-family: "Assistant";
        src: url("https://excalidraw.com/Assistant-Regular.woff2");
      }
    </style>
    
  </defs>
  <rect x="0" y="0" width="483.75001525878906" height="334.49998474121094" fill="#ffffff"></rect><g stroke-linecap="round" transform="translate(142.1250228881836 43.24998474121094) rotate(0 20 20)"><path d="M3.17 8.05 C3.17 8.05, 3.17 8.05, 3.17 8.05 M3.17 8.05 C3.17 8.05, 3.17 8.05, 3.17 8.05 M1.59 15.96 C6.24 10.35, 11.58 2.67, 15.37 0.11 M1.59 15.96 C4.76 12.73, 7.66 8.79, 15.37 0.11 M0.68 23.11 C5.2 18.87, 9.64 13.9, 19.7 1.23 M0.68 23.11 C6.09 16.79, 11.97 10.53, 19.7 1.23 M3.04 26.49 C9.06 20.62, 14.35 12.66, 24.69 1.59 M3.04 26.49 C11.93 16.98, 19.52 7.33, 24.69 1.59 M4.74 30.62 C10.61 22.86, 17.21 15.16, 29.67 1.95 M4.74 30.62 C11.19 23.11, 17.65 14.79, 29.67 1.95 M6.45 34.76 C13.87 25.19, 21.99 18.09, 32.04 5.32 M6.45 34.76 C15.99 23.34, 25.83 12.78, 32.04 5.32 M10.13 36.63 C17.35 27.77, 25.17 21.21, 35.06 7.95 M10.13 36.63 C16.83 29.04, 23.91 20.28, 35.06 7.95 M13.8 38.5 C20.93 30.34, 28.06 21.5, 38.08 10.57 M13.8 38.5 C19.56 32.29, 24.95 26.57, 38.08 10.57 M17.48 40.37 C23.43 32.56, 30.05 25.56, 39.13 15.46 M17.48 40.37 C24.16 32.61, 31.1 25.24, 39.13 15.46 M24.43 38.46 C26.68 33.94, 31.93 31.13, 39.52 21.1 M24.43 38.46 C28.7 33.66, 32.02 29.76, 39.52 21.1 M31.39 36.56 C33.19 35.03, 34.84 33, 35.98 31.28 M31.39 36.56 C32.22 35.35, 33.37 34.13, 35.98 31.28" stroke="#fa5252" stroke-width="0.5" fill="none"></path><path d="M14.97 0.3 C18.96 -0.91, 25.28 0.12, 29.21 2.03 C33.13 3.95, 36.91 7.93, 38.52 11.77 C40.14 15.61, 40.1 20.93, 38.91 25.09 C37.73 29.25, 35 34.16, 31.41 36.71 C27.83 39.25, 21.64 40.79, 17.4 40.35 C13.17 39.91, 8.86 37.15, 5.99 34.05 C3.13 30.94, 0.64 26.11, 0.22 21.71 C-0.2 17.32, 0.84 11.19, 3.47 7.71 C6.09 4.23, 13.77 2.01, 15.96 0.83 C18.14 -0.34, 16.56 0.37, 16.56 0.65 M19.94 0.54 C24.13 0.26, 30.12 2.22, 33.47 4.9 C36.81 7.58, 39.44 12.38, 40 16.64 C40.56 20.9, 39.17 26.8, 36.85 30.44 C34.52 34.08, 30.17 37.22, 26.06 38.47 C21.95 39.73, 16.07 39.33, 12.2 37.99 C8.32 36.64, 4.71 34.16, 2.8 30.42 C0.89 26.68, -0.09 19.84, 0.71 15.54 C1.52 11.24, 4.34 7.26, 7.63 4.64 C10.92 2.02, 18.43 0.5, 20.46 -0.19 C22.49 -0.87, 19.86 0.27, 19.82 0.56" stroke="#000000" stroke-width="1" fill="none"></path></g><g transform="translate(157.26502990722656 50.74998474121094) rotate(0 4.859992980957031 12.5)"><text x="4.859992980957031" y="17.52" font-family="Virgil, Segoe UI Emoji" font-size="20px" fill="#000000" text-anchor="middle" style="white-space: pre;" direction="ltr" dominant-baseline="alphabetic">f</text></g><g stroke-linecap="round" transform="translate(142.1250228881836 163.24998474121094) rotate(0 20 20)"><path d="M5.61 6.21 C5.61 6.21, 5.61 6.21, 5.61 6.21 M5.61 6.21 C5.61 6.21, 5.61 6.21, 5.61 6.21 M0.76 17.89 C5.32 11.66, 11.93 6.01, 15.19 1.28 M0.76 17.89 C5.65 11.56, 11.06 5.9, 15.19 1.28 M1.15 23.53 C8.2 14.9, 16.52 6.8, 20.84 0.89 M1.15 23.53 C6.6 17.12, 12.49 10.52, 20.84 0.89 M2.86 27.66 C11.89 17.74, 19.67 9.8, 25.17 2 M2.86 27.66 C10.47 18.27, 18.68 9.54, 25.17 2 M3.91 32.55 C10.19 25.07, 17.3 17.12, 30.15 2.36 M3.91 32.55 C12.76 22.4, 21.84 12.44, 30.15 2.36 M7.59 34.42 C13.97 27.38, 19.15 21.01, 32.52 5.74 M7.59 34.42 C13.36 27.46, 19.04 20.88, 32.52 5.74 M11.26 36.29 C16.5 28.87, 22.65 22.63, 35.54 8.37 M11.26 36.29 C20.99 25.18, 30.37 14.07, 35.54 8.37 M14.28 38.91 C21.79 29.79, 29.99 20.88, 37.9 11.74 M14.28 38.91 C20.82 30.95, 27.62 23.22, 37.9 11.74 M18.61 40.03 C23.98 34.46, 29.6 28.15, 39.61 15.88 M18.61 40.03 C23.87 33.86, 30.11 26.23, 39.61 15.88 M24.25 39.63 C27.03 36.29, 30.56 32.91, 38.69 23.03 M24.25 39.63 C27.83 36.1, 30.53 32.3, 38.69 23.03" stroke="#fa5252" stroke-width="0.5" fill="none"></path><path d="M17.42 0.04 C21.31 -0.86, 26.64 0.23, 30.29 2.54 C33.94 4.85, 38 9.66, 39.3 13.89 C40.6 18.12, 39.69 23.95, 38.11 27.94 C36.54 31.94, 33.51 35.85, 29.83 37.86 C26.15 39.86, 20.36 40.96, 16.03 39.96 C11.7 38.95, 6.49 35.22, 3.86 31.84 C1.22 28.47, -0.03 23.91, 0.21 19.69 C0.46 15.48, 2.45 9.78, 5.33 6.54 C8.2 3.29, 15.31 1.26, 17.48 0.22 C19.65 -0.82, 18.18 0.01, 18.32 0.29 M23.8 0.13 C27.73 0.62, 32.43 4.13, 35.05 7.38 C37.67 10.63, 39.58 15.51, 39.51 19.65 C39.43 23.79, 37.24 28.75, 34.6 32.21 C31.96 35.67, 27.72 39.67, 23.67 40.4 C19.62 41.13, 14 38.84, 10.29 36.6 C6.58 34.35, 2.92 30.88, 1.44 26.93 C-0.05 22.98, 0.02 16.93, 1.38 12.9 C2.74 8.88, 5.9 4.97, 9.58 2.8 C13.27 0.63, 21.1 0.13, 23.49 -0.14 C25.88 -0.4, 23.93 0.91, 23.93 1.22" stroke="#000000" stroke-width="1" fill="none"></path></g><g transform="translate(157.04502868652344 170.74998474121094) rotate(0 5.079994201660156 12.5)"><text x="5.079994201660156" y="17.52" font-family="Virgil, Segoe UI Emoji" font-size="20px" fill="#000000" text-anchor="middle" style="white-space: pre;" direction="ltr" dominant-baseline="alphabetic">b</text></g><g stroke-linecap="round" transform="translate(60.321800231933594 105.05329895019531) rotate(0 20 20)"><path d="M5.7 6.28 C5.7 6.28, 5.7 6.28, 5.7 6.28 M5.7 6.28 C5.7 6.28, 5.7 6.28, 5.7 6.28 M0.85 17.96 C4.2 13.84, 6.89 10.64, 15.28 1.36 M0.85 17.96 C6.4 11.72, 11.5 5.98, 15.28 1.36 M1.24 23.61 C8.99 15.01, 16.01 8.02, 20.27 1.72 M1.24 23.61 C5.83 18.78, 9.81 13.56, 20.27 1.72 M2.95 27.74 C10.72 18.06, 18.99 8.53, 25.26 2.08 M2.95 27.74 C11.56 17.3, 19.91 8.16, 25.26 2.08 M4 32.63 C12.4 22, 21.41 12.24, 29.59 3.2 M4 32.63 C11.15 24.22, 17.85 17.14, 29.59 3.2 M7.68 34.5 C15.93 24.12, 24.67 16.19, 32.61 5.82 M7.68 34.5 C15.5 26.07, 23.05 16.88, 32.61 5.82 M11.35 36.37 C17.52 29.28, 21.65 24.84, 34.97 9.2 M11.35 36.37 C20.59 26.23, 30.43 15.31, 34.97 9.2 M14.37 38.99 C21.85 31.89, 28.93 22.78, 37.99 11.82 M14.37 38.99 C21.19 31.04, 28.49 23.45, 37.99 11.82 M19.36 39.35 C23.92 34.53, 29.34 28.1, 39.7 15.96 M19.36 39.35 C25.44 32.88, 31.01 26.48, 39.7 15.96 M25 38.96 C27.52 35.19, 30.88 30.93, 39.43 22.35 M25 38.96 C30.01 32.9, 35.75 26.18, 39.43 22.35" stroke="#fa5252" stroke-width="0.5" fill="none"></path><path d="M17.56 0.27 C21.52 -0.63, 26.85 0.63, 30.4 2.92 C33.96 5.21, 37.62 9.95, 38.92 13.99 C40.21 18.02, 39.73 23.15, 38.16 27.13 C36.58 31.12, 33.17 35.82, 29.46 37.89 C25.75 39.96, 20.16 40.49, 15.91 39.57 C11.66 38.64, 6.6 35.67, 3.95 32.36 C1.29 29.05, -0.27 24, -0.02 19.7 C0.24 15.4, 2.41 9.77, 5.47 6.55 C8.53 3.33, 16.09 1.45, 18.35 0.39 C20.61 -0.66, 18.98 -0.12, 19.02 0.2 M21.47 0.1 C25.68 0.18, 31.78 3.33, 34.97 6.38 C38.15 9.42, 40.39 14.26, 40.57 18.36 C40.75 22.47, 38.63 27.48, 36.04 31.01 C33.44 34.54, 29.09 38.25, 25 39.55 C20.91 40.84, 15.35 40.6, 11.52 38.78 C7.68 36.97, 3.82 32.64, 1.97 28.66 C0.13 24.67, -0.56 19.12, 0.45 14.87 C1.45 10.62, 4.36 5.6, 7.99 3.13 C11.61 0.67, 19.87 0.56, 22.21 0.07 C24.55 -0.42, 22.13 -0.07, 22.03 0.19" stroke="#000000" stroke-width="1" fill="none"></path></g><g transform="translate(73.65180969238281 112.55329895019531) rotate(0 6.669990539550781 12.5)"><text x="6.669990539550781" y="17.52" font-family="Virgil, Segoe UI Emoji" font-size="20px" fill="#000000" text-anchor="middle" style="white-space: pre;" direction="ltr" dominant-baseline="alphabetic">a</text></g><g stroke-linecap="round" transform="translate(222.1250228881836 103.24998474121094) rotate(0 20 20)"><path d="M6.17 5.37 C6.17 5.37, 6.17 5.37, 6.17 5.37 M6.17 5.37 C6.17 5.37, 6.17 5.37, 6.17 5.37 M0.01 18.56 C4.62 13.8, 7.79 8.56, 14.44 1.95 M0.01 18.56 C3.85 14.7, 7.31 10.49, 14.44 1.95 M1.71 22.69 C6.81 17.61, 11.98 10.18, 20.74 0.8 M1.71 22.69 C8.45 15.29, 14.15 8.37, 20.74 0.8 M2.76 27.58 C8.25 20.76, 13.41 15.3, 24.41 2.67 M2.76 27.58 C7.09 22.21, 11.48 16.81, 24.41 2.67 M4.47 31.71 C11.94 22.7, 17.8 15.24, 28.75 3.79 M4.47 31.71 C10.17 24.78, 17.16 17.96, 28.75 3.79 M7.49 34.34 C13.26 27.14, 20.7 19.39, 32.42 5.66 M7.49 34.34 C13.87 27.03, 21.35 18.91, 32.42 5.66 M10.51 36.96 C16.44 30.69, 19.99 25.57, 34.78 9.04 M10.51 36.96 C17.38 29.01, 23.88 21.46, 34.78 9.04 M14.18 38.83 C21.93 30.53, 30.74 20.68, 37.8 11.66 M14.18 38.83 C20.18 31.6, 26.59 24.52, 37.8 11.66 M18.52 39.95 C25.82 32.14, 33.86 21.61, 40.17 15.04 M18.52 39.95 C26.8 30.59, 35.95 19.92, 40.17 15.04 M24.81 38.8 C29.12 32.73, 35.23 27.73, 39.25 22.19 M24.81 38.8 C30.5 33.15, 35.42 26.36, 39.25 22.19" stroke="#fa5252" stroke-width="0.5" fill="none"></path><path d="M18.72 0.15 C22.74 -0.27, 27.67 1.68, 31.18 4.19 C34.7 6.7, 38.62 11.07, 39.79 15.2 C40.97 19.34, 40.2 25.25, 38.22 29.01 C36.24 32.76, 31.79 35.95, 27.89 37.72 C24 39.49, 18.88 40.73, 14.85 39.65 C10.82 38.56, 6.21 34.81, 3.71 31.23 C1.21 27.65, -0.54 22.45, -0.16 18.17 C0.23 13.88, 2.7 8.61, 6.02 5.55 C9.34 2.48, 17.32 0.58, 19.77 -0.23 C22.22 -1.05, 20.76 0.25, 20.72 0.66 M18.25 -0.38 C22.24 -1.04, 27.61 0.47, 31.19 3.2 C34.77 5.93, 38.53 11.82, 39.71 15.98 C40.89 20.15, 40.18 24.45, 38.27 28.2 C36.36 31.95, 32.22 36.68, 28.26 38.48 C24.3 40.28, 18.74 40.21, 14.51 39 C10.27 37.79, 5.27 34.84, 2.86 31.22 C0.45 27.61, -0.56 21.52, 0.07 17.32 C0.71 13.12, 3.5 9, 6.67 6.03 C9.83 3.05, 16.99 0.36, 19.06 -0.54 C21.13 -1.44, 19.18 0.29, 19.09 0.63" stroke="#000000" stroke-width="1" fill="none"></path></g><g transform="translate(237.11502838134766 110.74998474121094) rotate(0 5.0099945068359375 12.5)"><text x="5.0099945068359375" y="17.52" font-family="Virgil, Segoe UI Emoji" font-size="20px" fill="#000000" text-anchor="middle" style="white-space: pre;" direction="ltr" dominant-baseline="alphabetic">g</text></g><g stroke-linecap="round"><g transform="translate(94.20836639404297 108.24998474121094) rotate(0 23.749984741210938 -17.5)"><path d="M-1.18 0.68 C6.84 -5.21, 39.41 -30.27, 47.71 -36.05 M0.41 -0.01 C8.31 -5.72, 38.86 -29.1, 46.87 -35.06" stroke="#c92a2a" stroke-width="1" fill="none"></path></g></g><mask></mask><g stroke-linecap="round"><g transform="translate(162.1250228881836 83.24998474121094) rotate(0 0 40)"><path d="M0.21 -1.05 C0.59 12.34, 1.07 67.45, 1.12 81.03 M-1.14 1.01 C-0.72 14.03, 0.57 66.57, 0.76 79.45" stroke="#1864ab" stroke-width="1" fill="none"></path></g></g><mask></mask><g stroke-linecap="round"><g transform="translate(96.29169464111328 139.49998474121094) rotate(0 23.12499237060547 16.041671752929688)"><path d="M0.49 0.41 C8.17 5.43, 39.75 25.78, 47.18 31.14 M-0.71 -0.41 C6.79 5.25, 38.71 27.03, 46.72 32.18" stroke="#c92a2a" stroke-width="1" fill="none"></path></g></g><mask></mask><g stroke-linecap="round"><g transform="translate(180.04161834716797 76.99998474121094) rotate(0 23.541702270507812 15.625)"><path d="M0.93 -0.94 C8.51 4.28, 38.08 26.29, 45.93 31.73 M-0.04 1.18 C7.84 6, 40.07 25.12, 48.03 29.86" stroke="#c92a2a" stroke-width="1" fill="none"></path></g></g><mask></mask><g stroke-linecap="round"><g transform="translate(225.04167938232422 136.58331298828125) rotate(0 -22.708328247070312 17.916664123535156)"><path d="M-1.16 0.48 C-8.73 6.69, -37.1 30.52, -44.52 36.31 M0.43 -0.31 C-7.3 5.62, -37.16 28.35, -44.99 34.44" stroke="#c92a2a" stroke-width="1" fill="none"></path></g></g><mask></mask><g stroke-linecap="round" transform="translate(302.1250228881836 43.24998474121094) rotate(0 20 20)"><path d="M6.67 5.8 C6.67 5.8, 6.67 5.8, 6.67 5.8 M6.67 5.8 C6.67 5.8, 6.67 5.8, 6.67 5.8 M0.5 18.99 C4.87 13.31, 9.96 8.37, 15.59 1.63 M0.5 18.99 C5.17 13.55, 10.34 7.5, 15.59 1.63 M1.55 23.88 C9.73 14.63, 16.02 6.73, 21.89 0.48 M1.55 23.88 C6.15 17.94, 11.65 12.42, 21.89 0.48 M2.6 28.76 C7.46 22.06, 13.87 15.97, 25.57 2.35 M2.6 28.76 C9.44 21.9, 15.04 14.44, 25.57 2.35 M4.97 32.14 C12.22 24.15, 18.34 15.93, 29.9 3.46 M4.97 32.14 C13.1 23.24, 19.75 14.83, 29.9 3.46 M7.99 34.77 C12.99 28.41, 18.92 21.46, 33.57 5.33 M7.99 34.77 C14.62 26.93, 21.21 19.4, 33.57 5.33 M11.66 36.64 C21.72 25.88, 29.76 15.51, 35.94 8.71 M11.66 36.64 C17.85 29.55, 24.39 22.58, 35.94 8.71 M14.68 39.26 C22.68 29.39, 31.26 21.38, 38.3 12.09 M14.68 39.26 C19.73 33.38, 24.65 27.95, 38.3 12.09 M20.32 38.87 C28.4 30.65, 36.19 20.7, 40.01 16.23 M20.32 38.87 C27.5 30.17, 34.86 22.36, 40.01 16.23 M25.97 38.47 C28.01 34.66, 32.17 31.97, 39.09 23.38 M25.97 38.47 C29.66 33.58, 34.39 28.37, 39.09 23.38" stroke="#fa5252" stroke-width="0.5" fill="none"></path><path d="M19.1 -0.16 C23.25 -0.66, 29.03 1.18, 32.49 3.85 C35.95 6.52, 38.99 11.61, 39.87 15.86 C40.75 20.11, 39.83 25.62, 37.78 29.35 C35.74 33.08, 31.52 36.67, 27.59 38.24 C23.65 39.81, 18.28 40.08, 14.17 38.77 C10.05 37.45, 5.3 33.87, 2.88 30.35 C0.47 26.83, -0.97 21.77, -0.3 17.63 C0.37 13.5, 3.54 8.44, 6.9 5.53 C10.26 2.62, 17.39 1, 19.84 0.17 C22.29 -0.66, 21.56 0.31, 21.61 0.56 M21.5 0.53 C25.64 0.47, 30.83 1.91, 33.95 4.78 C37.06 7.65, 39.76 13.48, 40.18 17.75 C40.59 22.01, 38.8 26.75, 36.45 30.37 C34.1 33.99, 30.06 38.06, 26.06 39.48 C22.07 40.9, 16.36 40.65, 12.47 38.89 C8.58 37.12, 4.59 32.65, 2.72 28.88 C0.84 25.1, 0.44 20.49, 1.24 16.25 C2.05 12.02, 4.15 6.29, 7.53 3.47 C10.91 0.65, 19.37 -0.04, 21.53 -0.64 C23.68 -1.25, 20.6 -0.67, 20.48 -0.16" stroke="#000000" stroke-width="1" fill="none"></path></g><g transform="translate(316.655029296875 50.74998474121094) rotate(0 5.469993591308594 12.5)"><text x="5.469993591308594" y="17.52" font-family="Virgil, Segoe UI Emoji" font-size="20px" fill="#000000" text-anchor="middle" style="white-space: pre;" direction="ltr" dominant-baseline="alphabetic">e</text></g><g stroke-linecap="round" transform="translate(302.1250228881836 163.24998474121094) rotate(0 20 20)"><path d="M5.69 6.27 C5.69 6.27, 5.69 6.27, 5.69 6.27 M5.69 6.27 C5.69 6.27, 5.69 6.27, 5.69 6.27 M0.18 18.7 C4.32 15, 7.72 9.23, 14.61 2.1 M0.18 18.7 C6.23 12.44, 11.02 6.02, 14.61 2.1 M1.23 23.59 C5.75 17.36, 11.02 11.18, 20.91 0.95 M1.23 23.59 C6.27 17.69, 11.33 10.99, 20.91 0.95 M2.93 27.72 C9.36 19.29, 16.51 13.31, 25.24 2.06 M2.93 27.72 C11.23 17.73, 19.84 8.59, 25.24 2.06 M4.64 31.86 C11.86 23, 19.68 16.44, 29.57 3.18 M4.64 31.86 C11.35 24.27, 18.42 15.51, 29.57 3.18 M7.66 34.48 C14.99 26.09, 22.32 17.02, 32.59 5.8 M7.66 34.48 C13.56 28.11, 19.1 22.23, 32.59 5.8 M10.68 37.11 C17.41 28.41, 24.8 20.53, 34.95 9.18 M10.68 37.11 C18.15 28.43, 25.89 20.13, 34.95 9.18 M14.35 38.98 C18.28 32.47, 25.25 27.68, 37.31 12.56 M14.35 38.98 C20.62 31.86, 25.97 25.62, 37.31 12.56 M19.34 39.34 C26.75 32.36, 33.76 23.92, 39.02 16.7 M19.34 39.34 C23.09 34.26, 27.81 29.16, 39.02 16.7 M25.64 38.19 C29.14 34.25, 33.1 29.5, 38.76 23.09 M25.64 38.19 C29.46 33.8, 33.86 29.57, 38.76 23.09" stroke="#fa5252" stroke-width="0.5" fill="none"></path><path d="M18.52 0.34 C22.49 -0.22, 27.97 1.37, 31.41 3.73 C34.85 6.1, 38.02 10.47, 39.17 14.52 C40.31 18.57, 40.1 24.19, 38.29 28.04 C36.47 31.89, 32.23 35.72, 28.26 37.64 C24.28 39.55, 18.47 40.5, 14.45 39.52 C10.43 38.55, 6.6 35.28, 4.13 31.78 C1.66 28.28, -0.68 22.81, -0.39 18.52 C-0.1 14.23, 2.68 9.16, 5.9 6.03 C9.11 2.89, 16.55 0.65, 18.9 -0.3 C21.25 -1.24, 20 -0.07, 19.99 0.37 M23.69 0.48 C27.64 0.93, 32.17 3.26, 34.92 6.55 C37.68 9.84, 40.08 15.8, 40.21 20.25 C40.33 24.7, 38.35 30.04, 35.67 33.25 C32.98 36.45, 28.25 38.65, 24.11 39.46 C19.97 40.28, 14.71 40.3, 10.83 38.12 C6.94 35.93, 2.35 30.63, 0.82 26.38 C-0.71 22.12, 0.23 16.63, 1.66 12.59 C3.08 8.55, 5.78 4.13, 9.37 2.15 C12.96 0.16, 20.86 0.87, 23.21 0.7 C25.55 0.54, 23.49 0.92, 23.45 1.16" stroke="#000000" stroke-width="1" fill="none"></path></g><g transform="translate(317.1050262451172 170.74998474121094) rotate(0 5.019996643066406 12.5)"><text x="5.019996643066406" y="17.52" font-family="Virgil, Segoe UI Emoji" font-size="20px" fill="#000000" text-anchor="middle" style="white-space: pre;" direction="ltr" dominant-baseline="alphabetic">c</text></g><g stroke-linecap="round" transform="translate(382.1250228881836 103.24998474121094) rotate(0 20 20)"><path d="M9.47 2.93 C9.47 2.93, 9.47 2.93, 9.47 2.93 M9.47 2.93 C9.47 2.93, 9.47 2.93, 9.47 2.93 M1.34 18.39 C7.49 11.73, 12.4 7.11, 15.77 1.78 M1.34 18.39 C6.17 12.16, 11.65 6.57, 15.77 1.78 M1.73 24.03 C6.68 18.03, 12.48 11.59, 22.72 -0.12 M1.73 24.03 C8.81 15.86, 16.14 7.91, 22.72 -0.12 M2.78 28.92 C8.87 22.22, 13.75 16.2, 26.4 1.75 M2.78 28.92 C8.25 22.31, 13.62 16.09, 26.4 1.75 M5.14 32.3 C10.53 24.7, 16.83 18.29, 30.07 3.62 M5.14 32.3 C15.13 20.89, 24.77 9.48, 30.07 3.62 M8.16 34.92 C16.36 25.01, 25.24 15.32, 33.75 5.49 M8.16 34.92 C15.25 26.31, 22.61 17.94, 33.75 5.49 M10.52 38.3 C17.06 31.4, 23.84 23.76, 36.11 8.87 M10.52 38.3 C17.02 30.67, 24.53 21.59, 36.11 8.87 M15.51 38.66 C20.04 33.24, 25.36 27.79, 37.82 13 M15.51 38.66 C20.9 33.03, 25.41 27.16, 37.82 13 M20.5 39.02 C26.88 31.34, 34.98 21.37, 39.52 17.13 M20.5 39.02 C25.15 33.65, 30.37 27.93, 39.52 17.13 M24.83 40.13 C28.73 35.68, 31.96 30.87, 38.61 24.29 M24.83 40.13 C28.62 35.78, 33.37 30.86, 38.61 24.29" stroke="#fa5252" stroke-width="0.5" fill="none"></path><path d="M22.4 -0.05 C26.49 0.12, 31.92 2.99, 34.81 6.1 C37.69 9.2, 39.59 14.23, 39.69 18.59 C39.8 22.96, 37.92 28.76, 35.45 32.29 C32.98 35.81, 29.05 38.8, 24.87 39.74 C20.69 40.69, 14.25 39.93, 10.38 37.95 C6.52 35.97, 3.26 31.87, 1.66 27.83 C0.06 23.8, -0.5 17.86, 0.77 13.75 C2.05 9.63, 5.56 5.34, 9.28 3.14 C13 0.95, 20.55 0.94, 23.09 0.6 C25.63 0.25, 24.58 0.75, 24.51 1.06 M21.51 0.4 C25.69 0.57, 30.95 3.15, 34.1 6.02 C37.25 8.89, 39.87 13.3, 40.41 17.6 C40.96 21.91, 39.9 28.34, 37.37 31.85 C34.83 35.35, 29.33 37.67, 25.18 38.64 C21.02 39.6, 16.38 39.37, 12.44 37.64 C8.5 35.91, 3.53 31.93, 1.53 28.26 C-0.48 24.6, -0.72 19.65, 0.41 15.67 C1.54 11.68, 4.85 6.98, 8.32 4.35 C11.79 1.72, 19.15 0.61, 21.22 -0.11 C23.28 -0.84, 20.78 -0.38, 20.73 -0.01" stroke="#000000" stroke-width="1" fill="none"></path></g><g transform="translate(396.4350280761719 110.74998474121094) rotate(0 5.689994812011719 12.5)"><text x="5.689994812011719" y="17.52" font-family="Virgil, Segoe UI Emoji" font-size="20px" fill="#000000" text-anchor="middle" style="white-space: pre;" direction="ltr" dominant-baseline="alphabetic">d</text></g><g stroke-linecap="round"><g transform="translate(259.6250228881836 109.49998474121094) rotate(0 22.38601209386718 -15.970180805395358)"><path d="M0.41 -0.3 C7.68 -5.58, 37 -26.27, 44.26 -31.65 M-0.84 -1.51 C6.18 -7.17, 35.16 -28.6, 43.04 -33.62" stroke="#087f5b" stroke-width="1" fill="none"></path></g></g><mask></mask><g stroke-linecap="round"><g transform="translate(322.1250228881836 83.24998474121094) rotate(0 0 40)"><path d="M-0.51 0.29 C-0.71 13.56, -0.69 66.22, -0.79 79.32 M1.42 -0.6 C1.57 12.84, 1.54 67.14, 1.51 80.5" stroke="#087f5b" stroke-width="1" fill="none"></path></g></g><mask></mask><g stroke-linecap="round"><g transform="translate(257.95833587646484 136.99998474121094) rotate(0 23.125015258789062 18.750015258789062)"><path d="M-1.08 -1.12 C6.83 5.42, 38.7 32.35, 46.68 38.6 M0.55 0.9 C8.41 7.2, 38.33 31.02, 45.96 37.06" stroke="#087f5b" stroke-width="1" fill="none"></path></g></g><mask></mask><g stroke-linecap="round"><g transform="translate(337.1250228881836 69.91664123535156) rotate(0 25.20831298828125 18.541671752929688)"><path d="M0.43 1.1 C9.11 7.28, 42.58 29.94, 50.98 35.98 M-0.8 0.63 C7.86 7.02, 41.82 30.58, 50.33 36.94" stroke="#1864ab" stroke-width="1" fill="none"></path></g></g><mask></mask><g stroke-linecap="round"><g transform="translate(386.70833587646484 137.83331298828125) rotate(0 -22.083328247070312 17.916664123535156)"><path d="M0.56 -1.1 C-6.8 4.73, -36.34 29.98, -43.76 36.09 M-0.6 0.94 C-8.12 6.9, -37.17 28.14, -44.49 34.1" stroke="#1864ab" stroke-width="1" fill="none"></path></g></g><mask></mask><g stroke-linecap="round"><g transform="translate(182.1250228881836 63.666656494140625) rotate(0 60 0)"><path d="M0.41 0.25 C20.35 0.39, 100.44 -0.3, 120.24 -0.3 M-0.84 -0.66 C18.92 -0.25, 98.99 0.69, 119.42 1.08" stroke="#1864ab" stroke-width="1" fill="none"></path></g></g><mask></mask><g stroke-linecap="round"><g transform="translate(182.1250228881836 183.24998474121094) rotate(0 60 0)"><path d="M0.24 -0.3 C20.04 -0.3, 99.28 0.32, 119.23 0.25 M-1.09 -1.5 C19.06 -1.91, 101.5 -2.03, 121.53 -1.74" stroke="#1864ab" stroke-width="1" fill="none"></path></g></g><mask></mask><g transform="translate(153.70838674902916 10) rotate(0 6.399993896484375 12.5)"><text x="0" y="17.52" font-family="Virgil, Segoe UI Emoji" font-size="20px" fill="#000000" text-anchor="start" style="white-space: pre;" direction="ltr" dominant-baseline="alphabetic">4</text></g><g transform="translate(314.6250432431698 11.75) rotate(0 6.399993896484375 12.5)"><text x="0" y="17.52" font-family="Virgil, Segoe UI Emoji" font-size="20px" fill="#000000" text-anchor="start" style="white-space: pre;" direction="ltr" dominant-baseline="alphabetic">4</text></g><g transform="translate(318.3750432431698 212.4166717529297) rotate(0 6.399993896484375 12.5)"><text x="0" y="17.52" font-family="Virgil, Segoe UI Emoji" font-size="20px" fill="#000000" text-anchor="start" style="white-space: pre;" direction="ltr" dominant-baseline="alphabetic">4</text></g><g transform="translate(157.37501272559166 212.4166717529297) rotate(0 6.399993896484375 12.5)"><text x="0" y="17.52" font-family="Virgil, Segoe UI Emoji" font-size="20px" fill="#000000" text-anchor="start" style="white-space: pre;" direction="ltr" dominant-baseline="alphabetic">4</text></g><g transform="translate(72.37502798438072 73.75) rotate(0 7.1199951171875 12.5)"><text x="0" y="17.52" font-family="Virgil, Segoe UI Emoji" font-size="20px" fill="#000000" text-anchor="start" style="white-space: pre;" direction="ltr" dominant-baseline="alphabetic">2</text></g><g transform="translate(392.1250737607479 71.91665649414062) rotate(0 7.1199951171875 12.5)"><text x="0" y="17.52" font-family="Virgil, Segoe UI Emoji" font-size="20px" fill="#000000" text-anchor="start" style="white-space: pre;" direction="ltr" dominant-baseline="alphabetic">2</text></g><g transform="translate(236.37504324316978 73.33332824707031) rotate(0 6.399993896484375 12.5)"><text x="0" y="17.52" font-family="Virgil, Segoe UI Emoji" font-size="20px" fill="#000000" text-anchor="start" style="white-space: pre;" direction="ltr" dominant-baseline="alphabetic">4</text></g><g transform="translate(10 299.49998474121094) rotate(0 72.02991485595703 12.5)"><text x="0" y="17.52" font-family="Virgil, Segoe UI Emoji" font-size="20px" fill="#1864ab" text-anchor="start" style="white-space: pre;" direction="ltr" dominant-baseline="alphabetic">Ciclo 3: fedcbf</text></g><g transform="translate(10 270.4166564941406) rotate(0 61.86993408203125 12.5)"><text x="0" y="17.52" font-family="Virgil, Segoe UI Emoji" font-size="20px" fill="#087f5b" text-anchor="start" style="white-space: pre;" direction="ltr" dominant-baseline="alphabetic">Ciclo 2: gecg</text></g><g transform="translate(10 241.3333282470703) rotate(0 65.23992156982422 12.5)"><text x="0" y="17.52" font-family="Virgil, Segoe UI Emoji" font-size="20px" fill="#c92a2a" text-anchor="start" style="white-space: pre;" direction="ltr" dominant-baseline="alphabetic">Ciclo 1: afgba</text></g><g transform="translate(178.24998474121094 241.3333282470703) rotate(0 53.75994110107422 12.5)"><text x="0" y="17.52" font-family="Virgil, Segoe UI Emoji" font-size="20px" fill="#000000" text-anchor="start" style="white-space: pre;" direction="ltr" dominant-baseline="alphabetic">Ciclo 1 y 2:</text></g><g transform="translate(292.33335876464844 241.7916717529297) rotate(0 11.529983520507812 12.5)"><text x="0" y="17.52" font-family="Virgil, Segoe UI Emoji" font-size="20px" fill="#c92a2a" text-anchor="start" style="white-space: pre;" direction="ltr" dominant-baseline="alphabetic">af</text></g><g transform="translate(363.5832977294922 242.00001525878906) rotate(0 11.749984741210938 12.5)"><text x="0" y="17.52" font-family="Virgil, Segoe UI Emoji" font-size="20px" fill="#c92a2a" text-anchor="start" style="white-space: pre;" direction="ltr" dominant-baseline="alphabetic">ba</text></g><g transform="translate(318.9583282470703 241.5833282470703) rotate(0 20.509979248046875 12.5)"><text x="0" y="17.52" font-family="Virgil, Segoe UI Emoji" font-size="20px" fill="#087f5b" text-anchor="start" style="white-space: pre;" direction="ltr" dominant-baseline="alphabetic">gecg</text></g><g transform="translate(178.24998474121094 270.8749237060547) rotate(0 68.13992309570312 12.5)"><text x="0" y="17.52" font-family="Virgil, Segoe UI Emoji" font-size="20px" fill="#000000" text-anchor="start" style="white-space: pre;" direction="ltr" dominant-baseline="alphabetic">Ciclo 1, 2 y 3:</text></g><g transform="translate(319.95835876464844 270.8749237060547) rotate(0 6.669990539550781 12.5)"><text x="0" y="17.52" font-family="Virgil, Segoe UI Emoji" font-size="20px" fill="#c92a2a" text-anchor="start" style="white-space: pre;" direction="ltr" dominant-baseline="alphabetic">a</text></g><g transform="translate(338.5000457763672 270.8749237060547) rotate(0 30.979965209960938 12.5)"><text x="0" y="17.52" font-family="Virgil, Segoe UI Emoji" font-size="20px" fill="#1864ab" text-anchor="start" style="white-space: pre;" direction="ltr" dominant-baseline="alphabetic">fedcbf</text></g><g transform="translate(450.2500457763672 271.29161071777344) rotate(0 11.749984741210938 12.5)"><text x="0" y="17.52" font-family="Virgil, Segoe UI Emoji" font-size="20px" fill="#c92a2a" text-anchor="start" style="white-space: pre;" direction="ltr" dominant-baseline="alphabetic">ba</text></g><g transform="translate(405.6250762939453 270.8749237060547) rotate(0 20.509979248046875 12.5)"><text x="0" y="17.52" font-family="Virgil, Segoe UI Emoji" font-size="20px" fill="#087f5b" text-anchor="start" style="white-space: pre;" direction="ltr" dominant-baseline="alphabetic">gecg</text></g></svg>