<svg version="1.1" xmlns="http://www.w3.org/2000/svg" viewBox="0 0 277.81846085192893 241.4657555920271" width="555.6369217038579" height="482.9315111840542" filter="invert(93%) hue-rotate(180deg)">
  <!-- svg-source:excalidraw -->
  
  <defs>
    <style class="style-fonts">
      @font-face {
        font-family: "Virgil";
        src: url("https://excalidraw.com/Virgil.woff2");
      }
      @font-face {
        font-family: "Cascadia";
        src: url("https://excalidraw.com/Cascadia.woff2");
      }
      @font-face {
        font-family: "Assistant";
        src: url("https://excalidraw.com/Assistant-Regular.woff2");
      }
    </style>
    
  </defs>
  <rect x="0" y="0" width="277.81846085192893" height="241.4657555920271" fill="#ffffff"></rect><g stroke-linecap="round"><g transform="translate(58.0423442694173 39.49558981104775) rotate(0 30.040155825759285 0.1650353812054277)"><path d="M1.01 1.2 C11.02 1.35, 49.57 0.7, 59.41 0.56 M0.08 0.78 C10.54 0.58, 51.91 -1.59, 61.77 -1.44" stroke="#2b8a3e" stroke-width="1" fill="none"></path></g></g><mask></mask><g stroke-linecap="round" transform="translate(118.64725308890462 18.25188432834142) rotate(0 20 20)"><path d="M6.46 5.62 C6.46 5.62, 6.46 5.62, 6.46 5.62 M6.46 5.62 C6.46 5.62, 6.46 5.62, 6.46 5.62 M0.29 18.81 C5.33 14.09, 10.63 8.34, 16.04 0.69 M0.29 18.81 C3.85 14.69, 7.25 11.21, 16.04 0.69 M1.35 23.69 C6.24 17.46, 11.86 11.48, 21.03 1.05 M1.35 23.69 C6.46 17.13, 12.41 11.12, 21.03 1.05 M2.4 28.58 C9.84 21.1, 16.51 13.09, 25.36 2.17 M2.4 28.58 C10.38 18.96, 19.62 9.6, 25.36 2.17 M4.1 32.72 C13.16 22.39, 20.62 14.32, 29.69 3.28 M4.1 32.72 C10.63 25.44, 17.31 18.11, 29.69 3.28 M7.78 34.59 C14.92 25.91, 21.06 17.97, 33.36 5.15 M7.78 34.59 C12.77 28.19, 17.62 22.22, 33.36 5.15 M10.8 37.21 C19.37 28.13, 27.77 18.81, 35.07 9.29 M10.8 37.21 C16.35 30.71, 22.34 23.83, 35.07 9.29 M14.47 39.08 C21.32 32.47, 28.25 24.35, 37.43 12.67 M14.47 39.08 C19.4 33.08, 24.46 27.88, 37.43 12.67 M19.46 39.44 C26.16 31.46, 33.41 23.52, 39.14 16.8 M19.46 39.44 C25.45 32.27, 31.29 24.91, 39.14 16.8 M24.45 39.8 C26.87 36.62, 31.34 31.66, 38.22 23.95 M24.45 39.8 C27.83 35.56, 31.63 30.83, 38.22 23.95" stroke="#12b886" stroke-width="0.5" fill="none"></path><path d="M18.52 -0.37 C22.64 -0.81, 28.46 1.58, 31.91 4.12 C35.36 6.67, 38.26 10.81, 39.2 14.92 C40.13 19.03, 39.4 24.81, 37.52 28.79 C35.64 32.77, 31.79 37.02, 27.93 38.78 C24.07 40.53, 18.55 40.54, 14.37 39.34 C10.2 38.13, 5.3 35.19, 2.9 31.55 C0.5 27.91, -0.61 21.82, -0.01 17.5 C0.59 13.17, 3.33 8.53, 6.49 5.58 C9.65 2.63, 16.66 0.59, 18.93 -0.2 C21.19 -0.99, 19.95 0.48, 20.08 0.84 M21.29 0.12 C25.48 0.04, 30.85 2.49, 33.94 5.36 C37.02 8.22, 39.39 13.16, 39.81 17.31 C40.22 21.46, 38.69 26.72, 36.41 30.29 C34.13 33.86, 30.06 37.5, 26.11 38.74 C22.15 39.97, 16.67 39.22, 12.68 37.7 C8.69 36.17, 4.26 33.27, 2.17 29.59 C0.08 25.91, -0.87 19.77, 0.14 15.63 C1.14 11.49, 4.74 7.24, 8.2 4.75 C11.65 2.26, 18.76 1.31, 20.86 0.7 C22.96 0.09, 20.67 0.93, 20.79 1.08" stroke="#000000" stroke-width="1" fill="none"></path></g><g transform="translate(133.56725888724446 25.75188432834142) rotate(0 5.079994201660156 12.5)"><text x="5.079994201660156" y="17.52" font-family="Virgil, Segoe UI Emoji" font-size="20px" fill="#000000" text-anchor="middle" style="white-space: pre;" direction="ltr" dominant-baseline="alphabetic">b</text></g><g stroke-linecap="round"><g transform="translate(159.6160367050395 39.60686334827892) rotate(0 29.515608191932557 -0.6774895099687512)"><path d="M0.32 0.47 C10.15 0.41, 49.4 -0.51, 59.19 -0.83 M-0.97 -0.33 C8.69 -0.71, 48.44 -2.7, 58.32 -2.67" stroke="#2b8a3e" stroke-width="1" fill="none"></path></g></g><mask></mask><g stroke-linecap="round" transform="translate(218.64725308890462 18.25188432834142) rotate(0 20 20)"><path d="M9.18 4 C9.18 4, 9.18 4, 9.18 4 M9.18 4 C9.18 4, 9.18 4, 9.18 4 M1.7 18.7 C6.98 12.63, 10.35 6.95, 16.79 1.34 M1.7 18.7 C6.1 14.03, 10.09 9.12, 16.79 1.34 M2.09 24.35 C5.8 19.51, 10.53 14.82, 23.09 0.19 M2.09 24.35 C8.61 16.03, 15.24 8.81, 23.09 0.19 M3.14 29.23 C7.22 24.57, 13.69 17.79, 26.11 2.82 M3.14 29.23 C8.77 23.15, 13.78 17.22, 26.11 2.82 M6.16 31.86 C13.73 22.83, 23.36 12.45, 29.78 4.69 M6.16 31.86 C14.75 21.58, 23.87 12.05, 29.78 4.69 M8.53 35.24 C17.03 24.15, 27.2 13.24, 33.46 6.56 M8.53 35.24 C15.22 27.32, 21.17 20.24, 33.46 6.56 M11.55 37.86 C19.14 29.88, 27.13 20.62, 35.82 9.94 M11.55 37.86 C17.96 30.11, 25.35 22.2, 35.82 9.94 M16.53 38.22 C23.84 29.42, 32.03 19.95, 37.53 14.07 M16.53 38.22 C24.01 29.61, 30.8 21.96, 37.53 14.07 M21.52 38.58 C25.99 33.47, 29.3 29.15, 39.23 18.2 M21.52 38.58 C28.43 31.26, 34.54 22.97, 39.23 18.2 M25.85 39.7 C27.55 36.86, 30.43 34.29, 37.66 26.11 M25.85 39.7 C28.4 36.94, 31.02 33.61, 37.66 26.11" stroke="#12b886" stroke-width="0.5" fill="none"></path><path d="M22.06 -0.14 C26.07 0.08, 31.15 3.14, 34.09 6.33 C37.03 9.52, 39.45 14.77, 39.71 19.01 C39.97 23.26, 38.07 28.46, 35.63 31.82 C33.18 35.19, 29.12 38.14, 25.04 39.19 C20.97 40.24, 15 39.98, 11.19 38.11 C7.37 36.23, 3.8 31.91, 2.15 27.94 C0.49 23.96, 0.05 18.27, 1.25 14.25 C2.45 10.23, 5.74 6.21, 9.35 3.81 C12.95 1.41, 20.46 0.34, 22.88 -0.15 C25.29 -0.65, 23.87 0.38, 23.82 0.83 M25.43 0.08 C29.49 0.66, 34.34 4.06, 36.7 7.58 C39.06 11.1, 39.95 16.78, 39.57 21.23 C39.2 25.67, 37.24 31.11, 34.46 34.25 C31.68 37.4, 27.04 39.61, 22.88 40.11 C18.73 40.6, 13.13 39.77, 9.52 37.23 C5.92 34.69, 2.59 29.09, 1.25 24.87 C-0.08 20.65, -0.24 15.82, 1.49 11.92 C3.21 8.02, 7.61 3.4, 11.61 1.47 C15.6 -0.45, 23.28 0.4, 25.44 0.38 C27.6 0.36, 24.69 1.09, 24.57 1.36" stroke="#000000" stroke-width="1" fill="none"></path></g><g transform="translate(233.6272564458382 25.75188432834142) rotate(0 5.019996643066406 12.5)"><text x="5.019996643066406" y="17.52" font-family="Virgil, Segoe UI Emoji" font-size="20px" fill="#000000" text-anchor="middle" style="white-space: pre;" direction="ltr" dominant-baseline="alphabetic">c</text></g><g stroke-linecap="round" transform="translate(18.64725308890462 98.25188432834142) rotate(0 20 20)"><path d="M5.64 6.23 C5.64 6.23, 5.64 6.23, 5.64 6.23 M5.64 6.23 C5.64 6.23, 5.64 6.23, 5.64 6.23 M0.13 18.66 C4.58 13.23, 9.58 8.86, 14.56 2.06 M0.13 18.66 C5.59 12.65, 10.2 6.48, 14.56 2.06 M1.84 22.8 C7.5 16.45, 13.21 8.37, 20.21 1.67 M1.84 22.8 C5.97 17.7, 10.77 12.79, 20.21 1.67 M2.89 27.69 C10.13 20.86, 15.71 12.91, 25.19 2.03 M2.89 27.69 C10.14 19.76, 17.08 11.25, 25.19 2.03 M4.6 31.82 C11.18 23.6, 19.65 14.19, 29.53 3.14 M4.6 31.82 C9.8 26.01, 15.43 19.32, 29.53 3.14 M7.61 34.44 C15.65 24.72, 24.22 13.78, 32.54 5.77 M7.61 34.44 C13.06 28.54, 18.7 22.05, 32.54 5.77 M11.29 36.31 C20.81 25.1, 29.24 14.75, 35.56 8.39 M11.29 36.31 C18.68 27.15, 26.84 18.56, 35.56 8.39 M14.96 38.18 C20.16 32.05, 25.18 25.72, 37.93 11.77 M14.96 38.18 C20.98 30.83, 27.88 22.82, 37.93 11.77 M19.3 39.3 C24.43 33.38, 28.65 28.06, 39.63 15.9 M19.3 39.3 C27.12 30.44, 34.52 21.77, 39.63 15.9 M24.94 38.9 C30.1 33.24, 35.47 26.58, 39.37 22.3 M24.94 38.9 C28.77 34.27, 32.43 29.64, 39.37 22.3" stroke="#12b886" stroke-width="0.5" fill="none"></path><path d="M17.85 0.65 C21.8 -0.22, 27.28 0.54, 30.8 2.76 C34.32 4.99, 37.73 9.89, 38.98 14.01 C40.24 18.13, 39.97 23.47, 38.32 27.49 C36.67 31.52, 32.81 36.22, 29.07 38.14 C25.33 40.07, 20.08 40.07, 15.89 39.03 C11.71 37.98, 6.58 35.25, 3.94 31.9 C1.3 28.55, -0.18 23.18, 0.06 18.94 C0.31 14.71, 2.34 9.58, 5.42 6.48 C8.5 3.39, 16.27 1.41, 18.53 0.38 C20.8 -0.65, 19.05 0.1, 18.99 0.3 M16.16 0.71 C20.23 -0.37, 26.75 0.26, 30.51 2.36 C34.27 4.46, 37.31 9.3, 38.72 13.3 C40.14 17.31, 40.44 22.52, 39 26.42 C37.55 30.32, 33.86 34.45, 30.04 36.72 C26.22 38.98, 20.44 40.72, 16.06 40.03 C11.68 39.34, 6.45 36.06, 3.79 32.56 C1.12 29.07, -0.18 23.32, 0.07 19.06 C0.31 14.81, 2.39 10.27, 5.27 7.04 C8.16 3.81, 15.4 0.84, 17.37 -0.32 C19.34 -1.48, 17.04 -0.34, 17.1 0.08" stroke="#000000" stroke-width="1" fill="none"></path></g><g transform="translate(32.9572582768929 105.75188432834142) rotate(0 5.689994812011719 12.5)"><text x="5.689994812011719" y="17.52" font-family="Virgil, Segoe UI Emoji" font-size="20px" fill="#000000" text-anchor="middle" style="white-space: pre;" direction="ltr" dominant-baseline="alphabetic">d</text></g><g stroke-linecap="round"><g transform="translate(38.64725308890462 58.25188432834142) rotate(0 0 20)"><path d="M0.13 0.05 C0.19 6.79, 0.38 33.69, 0.36 40.33 M-0.46 -0.4 C-0.45 6.19, 0.09 32.74, 0.11 39.53" stroke="#000000" stroke-width="1" fill="none"></path></g></g><mask></mask><g stroke-linecap="round"><g transform="translate(59.44509615924217 120.02017172022744) rotate(0 30.040155825759285 -0.8841436959430098)"><path d="M0.43 -0.73 C10.57 -1.18, 49.8 -1.6, 59.82 -1.96 M-0.8 1.5 C9.25 1.17, 48.59 0.08, 58.73 -0.52" stroke="#2b8a3e" stroke-width="1" fill="none"></path></g></g><mask></mask><g stroke-linecap="round" transform="translate(118.64725308890462 98.25188432834142) rotate(0 20 20)"><path d="M6.53 5.68 C6.53 5.68, 6.53 5.68, 6.53 5.68 M6.53 5.68 C6.53 5.68, 6.53 5.68, 6.53 5.68 M1.02 18.12 C5.66 13.6, 9.65 7.99, 15.46 1.51 M1.02 18.12 C4.91 13.33, 9.74 7.94, 15.46 1.51 M2.07 23 C6.04 18.71, 10.96 12.62, 21.76 0.36 M2.07 23 C8.6 15.3, 15.37 6.97, 21.76 0.36 M3.13 27.89 C8.09 23.07, 13.31 17.07, 25.43 2.23 M3.13 27.89 C11.74 17.81, 19.82 8.19, 25.43 2.23 M4.83 32.03 C12.05 22.32, 20.9 13.73, 29.76 3.35 M4.83 32.03 C10.46 25.41, 16.02 18.74, 29.76 3.35 M8.51 33.9 C14.4 26.38, 21.95 17.55, 32.78 5.97 M8.51 33.9 C14.29 27.08, 19.7 20.62, 32.78 5.97 M11.53 36.52 C20.77 26.14, 29.19 16.16, 35.14 9.35 M11.53 36.52 C20.19 26.75, 28.94 16.45, 35.14 9.35 M14.54 39.14 C20.59 31.75, 26.27 24.39, 37.51 12.73 M14.54 39.14 C21.57 31.44, 28.35 23.56, 37.51 12.73 M20.19 38.75 C28.12 29.12, 35.38 21.85, 39.87 16.11 M20.19 38.75 C25.93 33.06, 30.82 26.52, 39.87 16.11 M25.17 39.11 C27.59 35.25, 31.41 32.23, 38.95 23.26 M25.17 39.11 C30.55 33.4, 35.35 26.53, 38.95 23.26" stroke="#12b886" stroke-width="0.5" fill="none"></path><path d="M19.4 -0.48 C23.4 -0.78, 28.83 1.74, 32.11 4.44 C35.39 7.13, 38.13 11.62, 39.07 15.7 C40.01 19.77, 39.62 25.05, 37.75 28.87 C35.88 32.68, 31.77 36.95, 27.86 38.58 C23.95 40.22, 18.39 40.05, 14.29 38.67 C10.19 37.29, 5.53 33.86, 3.24 30.3 C0.95 26.74, -0.02 21.44, 0.56 17.3 C1.15 13.16, 3.47 8.38, 6.74 5.45 C10 2.51, 17.92 0.6, 20.15 -0.32 C22.37 -1.23, 20.23 -0.47, 20.09 -0.06 M15.73 -0.12 C19.66 -1.22, 25.41 0.1, 29.19 2.21 C32.96 4.32, 36.74 8.66, 38.4 12.55 C40.07 16.45, 40.35 21.53, 39.18 25.6 C38.02 29.67, 34.95 34.7, 31.41 36.99 C27.86 39.28, 22.16 39.81, 17.91 39.33 C13.66 38.84, 8.93 37.18, 5.92 34.08 C2.91 30.99, 0.27 25.1, -0.15 20.77 C-0.57 16.45, 0.77 11.61, 3.4 8.11 C6.02 4.61, 13.58 0.92, 15.59 -0.24 C17.59 -1.39, 15.41 0.85, 15.42 1.2" stroke="#000000" stroke-width="1" fill="none"></path></g><g transform="translate(133.17725949759603 105.75188432834142) rotate(0 5.469993591308594 12.5)"><text x="5.469993591308594" y="17.52" font-family="Virgil, Segoe UI Emoji" font-size="20px" fill="#000000" text-anchor="middle" style="white-space: pre;" direction="ltr" dominant-baseline="alphabetic">e</text></g><g stroke-linecap="round"><g transform="translate(160.4941914268956 119.60686334827886) rotate(0 29.515608191932557 -0.6774895099687512)"><path d="M-0.19 0.48 C9.59 0.37, 48.27 -0.54, 57.94 -0.9 M-1.75 -0.31 C8.45 -0.76, 49.77 -2.75, 60.08 -2.78" stroke="#2b8a3e" stroke-width="1" fill="none"></path></g></g><mask></mask><g stroke-linecap="round" transform="translate(218.64725308890462 98.25188432834142) rotate(0 20 20)"><path d="M8.35 3.28 C8.35 3.28, 8.35 3.28, 8.35 3.28 M8.35 3.28 C8.35 3.28, 8.35 3.28, 8.35 3.28 M1.53 17.23 C6.23 12.67, 9.32 7.12, 15.3 1.38 M1.53 17.23 C4.08 13.58, 6.78 10.91, 15.3 1.38 M1.92 22.87 C6.63 16.8, 12.61 9.46, 22.26 -0.53 M1.92 22.87 C6.26 16.98, 11.99 11.86, 22.26 -0.53 M2.31 28.51 C10.16 20.65, 17.48 11.65, 25.93 1.34 M2.31 28.51 C10.11 19.62, 17.75 10.59, 25.93 1.34 M4.68 31.89 C10.06 24.91, 15.85 19.97, 28.95 3.97 M4.68 31.89 C11.82 23.4, 19.83 15.05, 28.95 3.97 M7.7 34.52 C12.4 28.14, 18.63 24, 32.63 5.84 M7.7 34.52 C16.36 24.86, 25.05 14.53, 32.63 5.84 M10.06 37.89 C18.68 28.68, 27.16 17.52, 35.65 8.46 M10.06 37.89 C17.14 29.55, 24.8 21.22, 35.65 8.46 M14.39 39.01 C20.68 31.84, 27.17 24.03, 37.35 12.59 M14.39 39.01 C22.08 30.87, 28.93 21.35, 37.35 12.59 M19.38 39.37 C26.41 32.21, 30.68 24.58, 39.06 16.73 M19.38 39.37 C26.36 30.85, 33.49 23.33, 39.06 16.73 M24.36 39.73 C27.98 36.67, 32.01 31.14, 38.8 23.13 M24.36 39.73 C28.56 34.9, 33.5 28.79, 38.8 23.13" stroke="#12b886" stroke-width="0.5" fill="none"></path><path d="M22.16 -0.38 C26.32 -0.22, 31.32 2.84, 34.21 6.02 C37.1 9.2, 39.14 14.37, 39.5 18.7 C39.86 23.02, 38.84 28.52, 36.36 31.98 C33.88 35.45, 28.86 38.44, 24.63 39.51 C20.41 40.59, 14.82 40.27, 11.02 38.44 C7.21 36.6, 3.47 32.39, 1.79 28.49 C0.12 24.59, -0.12 19.24, 0.97 15.04 C2.06 10.84, 4.87 5.85, 8.35 3.28 C11.82 0.72, 19.43 0.18, 21.84 -0.35 C24.24 -0.87, 22.72 -0.25, 22.76 0.13 M21.3 0.02 C25.53 0.02, 31.09 2.55, 34.14 5.6 C37.19 8.66, 39.14 14.03, 39.59 18.35 C40.04 22.66, 39.25 27.91, 36.84 31.48 C34.42 35.05, 29.17 38.66, 25.1 39.77 C21.04 40.88, 16.32 40.07, 12.44 38.14 C8.57 36.22, 3.79 32.02, 1.84 28.21 C-0.11 24.41, -0.18 19.41, 0.75 15.32 C1.68 11.23, 3.94 6.28, 7.41 3.67 C10.89 1.06, 19.38 0.27, 21.59 -0.36 C23.79 -0.99, 20.82 -0.49, 20.64 -0.11" stroke="#000000" stroke-width="1" fill="none"></path></g><g transform="translate(233.7872601079476 105.75188432834142) rotate(0 4.859992980957031 12.5)"><text x="4.859992980957031" y="17.52" font-family="Virgil, Segoe UI Emoji" font-size="20px" fill="#000000" text-anchor="middle" style="white-space: pre;" direction="ltr" dominant-baseline="alphabetic">f</text></g><g stroke-linecap="round"><g transform="translate(138.64725308890462 58.25188432834142) rotate(0 0 20)"><path d="M-0.05 -0.08 C-0.14 6.57, -0.33 33.25, -0.24 39.94 M-0.74 -0.6 C-0.95 6.14, -0.98 33.72, -0.79 40.6" stroke="#000000" stroke-width="1" fill="none"></path></g></g><mask></mask><g stroke-linecap="round"><g transform="translate(238.64725308890462 58.25188432834142) rotate(0 0 20)"><path d="M-0.13 -0.36 C-0.09 6.43, 0.48 33.84, 0.54 40.53 M0.81 0.64 C0.8 7.31, 0.51 33.23, 0.39 39.84" stroke="#000000" stroke-width="1" fill="none"></path></g></g><mask></mask><g stroke-linecap="round"><g transform="translate(38.64725308890462 138.25188432834142) rotate(0 0 20)"><path d="M0.04 0.45 C0 7.17, 0.03 33.77, -0.06 40.32 M-0.6 0.21 C-0.73 6.77, -0.71 32.84, -0.52 39.52" stroke="#000000" stroke-width="1" fill="none"></path></g></g><mask></mask><g stroke-linecap="round"><g transform="translate(138.64725308890462 138.25188432834142) rotate(0 0 20)"><path d="M-0.52 -0.22 C-0.54 6.41, -0.2 33.48, -0.16 40.1 M0.22 -0.82 C0.12 5.61, -0.51 32.41, -0.68 39.18" stroke="#2b8a3e" stroke-width="1" fill="none"></path></g></g><mask></mask><g stroke-linecap="round"><g transform="translate(238.64725308890462 138.25188432834142) rotate(0 0 20)"><path d="M-0.29 -0.53 C-0.24 6.08, 0.01 32.99, 0.13 39.74 M0.56 0.39 C0.56 7.06, -0.19 33.61, -0.23 40.31" stroke="#2b8a3e" stroke-width="1" fill="none"></path></g></g><mask></mask><g stroke-linecap="round" transform="translate(18.64725308890462 178.25188432834142) rotate(0 20 20)"><path d="M7.9 4.22 C7.9 4.22, 7.9 4.22, 7.9 4.22 M7.9 4.22 C7.9 4.22, 7.9 4.22, 7.9 4.22 M1.73 17.41 C7.6 11.16, 11.07 6.05, 15.51 1.56 M1.73 17.41 C4.9 13.6, 8.96 8.9, 15.51 1.56 M2.13 23.05 C9.68 13.99, 17.84 5.24, 21.81 0.41 M2.13 23.05 C9.54 13.61, 17.64 5.47, 21.81 0.41 M2.52 28.69 C8.84 20.28, 16 12.1, 25.49 2.28 M2.52 28.69 C6.94 23.26, 11.8 17.93, 25.49 2.28 M4.89 32.07 C10.9 26.41, 15.99 19.6, 29.16 4.15 M4.89 32.07 C10.43 25.37, 16.9 19.2, 29.16 4.15 M7.9 34.7 C13.41 28.18, 18.56 22.82, 33.49 5.26 M7.9 34.7 C17.33 24.12, 26.27 14.15, 33.49 5.26 M10.92 37.32 C19.38 27.44, 28.68 16.74, 35.2 9.4 M10.92 37.32 C18.98 27.66, 27.36 17.72, 35.2 9.4 M14.6 39.19 C23.26 28.75, 30.14 20.65, 37.56 12.78 M14.6 39.19 C22.39 30.55, 30.13 21.27, 37.56 12.78 M19.59 39.55 C24.57 33.31, 30.21 27.21, 39.27 16.91 M19.59 39.55 C24.3 34.35, 28.89 29.14, 39.27 16.91 M25.23 39.16 C28.82 35.37, 30.45 32.84, 39.01 23.31 M25.23 39.16 C29.61 34.28, 34.44 29.2, 39.01 23.31" stroke="#12b886" stroke-width="0.5" fill="none"></path><path d="M20.97 0.26 C25.11 0.2, 30.36 2.37, 33.48 5.18 C36.61 8, 39.13 12.83, 39.71 17.14 C40.29 21.45, 39.3 27.35, 36.96 31.02 C34.61 34.69, 29.84 37.9, 25.64 39.18 C21.45 40.46, 15.77 40.3, 11.8 38.69 C7.84 37.09, 3.7 33.36, 1.87 29.54 C0.05 25.72, -0.22 20.05, 0.84 15.77 C1.89 11.5, 4.61 6.46, 8.2 3.87 C11.79 1.27, 19.77 0.73, 22.38 0.21 C24.99 -0.31, 23.87 0.47, 23.86 0.76 M24.36 0.6 C28.34 1.11, 32.6 3.78, 35.09 7.17 C37.59 10.55, 39.42 16.56, 39.33 20.89 C39.25 25.22, 37.48 29.98, 34.6 33.17 C31.71 36.36, 26.33 39.29, 22.01 40.01 C17.7 40.74, 12.18 39.77, 8.71 37.54 C5.24 35.31, 2.41 30.79, 1.19 26.62 C-0.03 22.44, -0.06 16.48, 1.39 12.48 C2.85 8.47, 6.21 4.52, 9.91 2.59 C13.6 0.65, 21.08 1.24, 23.57 0.87 C26.05 0.5, 24.68 0.17, 24.8 0.37" stroke="#000000" stroke-width="1" fill="none"></path></g><g transform="translate(33.63725858206868 185.75188432834142) rotate(0 5.0099945068359375 12.5)"><text x="5.0099945068359375" y="17.52" font-family="Virgil, Segoe UI Emoji" font-size="20px" fill="#000000" text-anchor="middle" style="white-space: pre;" direction="ltr" dominant-baseline="alphabetic">g</text></g><g stroke-linecap="round"><g transform="translate(59.445096159242155 200.02017172022744) rotate(0 30.040155825759285 -0.8841436959430098)"><path d="M0.22 -0.95 C9.99 -1.4, 49.59 -1.49, 59.66 -1.66 M-1.12 1.17 C8.35 1.44, 48.28 0.25, 58.5 -0.06" stroke="#2b8a3e" stroke-width="1" fill="none"></path></g></g><mask></mask><g stroke-linecap="round" transform="translate(118.64725308890462 178.25188432834142) rotate(0 20 20)"><path d="M7.68 4.02 C7.68 4.02, 7.68 4.02, 7.68 4.02 M7.68 4.02 C7.68 4.02, 7.68 4.02, 7.68 4.02 M0.85 17.97 C6.4 11.13, 13.28 4.75, 15.29 1.36 M0.85 17.97 C3.79 14.97, 6.42 11.51, 15.29 1.36 M1.91 22.86 C7.36 17.49, 13.12 10.55, 21.59 0.22 M1.91 22.86 C6.96 17.54, 11.01 12.55, 21.59 0.22 M2.96 27.74 C7.59 21.19, 13.61 16.34, 25.26 2.08 M2.96 27.74 C8.97 20.47, 15.15 13.5, 25.26 2.08 M4.66 31.88 C13.16 22.43, 20.32 14.13, 28.94 3.95 M4.66 31.88 C11.43 24.06, 17.32 17.27, 28.94 3.95 M7.68 34.5 C16.27 25.75, 24.12 15.48, 33.27 5.07 M7.68 34.5 C17.42 24.19, 26.42 13.16, 33.27 5.07 M10.7 37.13 C16.75 31.31, 21.53 23.81, 34.97 9.2 M10.7 37.13 C16.09 30.76, 22.55 23.82, 34.97 9.2 M13.72 39.75 C22.44 30.77, 30.51 20.22, 37.34 12.58 M13.72 39.75 C21.15 30.52, 29.55 21.91, 37.34 12.58 M19.36 39.36 C24.8 32.05, 30.66 25.96, 39.7 15.96 M19.36 39.36 C26.15 31.09, 32.94 23.7, 39.7 15.96 M25.01 38.96 C30.59 33.56, 34.82 27.13, 38.78 23.11 M25.01 38.96 C29.16 33.92, 32.6 29.44, 38.78 23.11" stroke="#12b886" stroke-width="0.5" fill="none"></path><path d="M20.36 -0.12 C24.34 -0.25, 29.63 2.3, 32.9 5.1 C36.18 7.9, 39.29 12.53, 40 16.67 C40.71 20.8, 39.4 26.26, 37.17 29.91 C34.94 33.56, 30.65 37.07, 26.64 38.59 C22.62 40.1, 17.08 40.43, 13.08 38.98 C9.07 37.54, 4.76 33.78, 2.61 29.93 C0.46 26.08, -0.66 20.19, 0.16 15.9 C0.98 11.6, 4.09 6.81, 7.55 4.17 C11.01 1.53, 18.62 0.6, 20.9 0.06 C23.18 -0.49, 21.27 0.55, 21.23 0.87 M20.63 -0.62 C24.71 -0.56, 30.73 2.29, 33.9 5.21 C37.06 8.14, 39.13 12.76, 39.63 16.95 C40.13 21.14, 39.13 26.6, 36.91 30.34 C34.69 34.07, 30.38 38.06, 26.32 39.38 C22.25 40.71, 16.56 40.14, 12.53 38.29 C8.5 36.43, 4.08 32.16, 2.12 28.24 C0.17 24.31, -0.26 18.68, 0.8 14.75 C1.86 10.82, 5.18 7.01, 8.5 4.65 C11.81 2.29, 18.65 1.35, 20.71 0.57 C22.78 -0.21, 20.74 -0.39, 20.86 -0.03" stroke="#000000" stroke-width="1" fill="none"></path></g><g transform="translate(133.7072582768929 185.75188432834142) rotate(0 4.939994812011719 12.5)"><text x="4.939994812011719" y="17.52" font-family="Virgil, Segoe UI Emoji" font-size="20px" fill="#000000" text-anchor="middle" style="white-space: pre;" direction="ltr" dominant-baseline="alphabetic">h</text></g><g stroke-linecap="round"><g transform="translate(160.4941914268956 199.60686334827886) rotate(0 29.515608191932557 -0.6774895099687512)"><path d="M0.11 0.57 C10.08 0.37, 49.09 -1.17, 58.86 -1.61 M-1.29 -0.18 C8.59 -0.16, 47.98 -0.05, 57.83 -0.21" stroke="#000000" stroke-width="1" fill="none"></path></g></g><mask></mask><g stroke-linecap="round" transform="translate(218.64725308890462 178.25188432834142) rotate(0 20 20)"><path d="M6.2 5.39 C6.2 5.39, 6.2 5.39, 6.2 5.39 M6.2 5.39 C6.2 5.39, 6.2 5.39, 6.2 5.39 M0.69 17.82 C4.43 12.41, 9.29 8.71, 14.46 1.97 M0.69 17.82 C5.18 13.04, 8.77 8.54, 14.46 1.97 M1.74 22.71 C7.6 15.52, 12.01 9.67, 20.76 0.82 M1.74 22.71 C8.94 14.51, 15.28 6.71, 20.76 0.82 M2.79 27.6 C8.74 20.34, 14.7 13.85, 25.09 1.94 M2.79 27.6 C8.97 20.31, 16.18 12.56, 25.09 1.94 M4.49 31.73 C14.04 20.4, 23.43 10.85, 28.77 3.81 M4.49 31.73 C14.13 20.89, 23.43 9.87, 28.77 3.81 M7.51 34.36 C15.59 25.15, 24.27 14.94, 32.44 5.68 M7.51 34.36 C17.01 22.96, 26.89 12.01, 32.44 5.68 M11.19 36.23 C19.02 25.72, 28.07 15.86, 34.81 9.06 M11.19 36.23 C15.94 30.95, 20.15 24.8, 34.81 9.06 M14.21 38.85 C21.17 30.17, 29.93 21.36, 37.17 12.44 M14.21 38.85 C19.66 32.75, 24.52 27, 37.17 12.44 M19.19 39.21 C24.54 33.27, 30.21 27.09, 39.53 15.81 M19.19 39.21 C25.36 32.55, 31.23 24.89, 39.53 15.81 M24.84 38.82 C29.27 32.96, 35.17 28.02, 38.61 22.97 M24.84 38.82 C29.27 33.24, 33.96 28.25, 38.61 22.97" stroke="#12b886" stroke-width="0.5" fill="none"></path><path d="M19.04 0.26 C23.06 -0.15, 28.37 1.52, 31.69 4.1 C35.02 6.67, 38.03 11.49, 38.99 15.71 C39.95 19.93, 39.27 25.6, 37.47 29.41 C35.67 33.21, 32.02 36.97, 28.2 38.56 C24.37 40.14, 18.7 40.17, 14.52 38.9 C10.33 37.64, 5.5 34.53, 3.07 30.96 C0.64 27.4, -0.62 21.82, -0.07 17.52 C0.48 13.23, 3 8.15, 6.37 5.19 C9.74 2.23, 17.81 0.55, 20.17 -0.23 C22.54 -1, 20.61 0.23, 20.56 0.53 M16.14 0.09 C20.09 -0.88, 25.48 0.56, 29.14 2.81 C32.79 5.07, 36.43 9.56, 38.08 13.62 C39.73 17.68, 40.4 23.24, 39.06 27.17 C37.72 31.11, 33.9 35.11, 30.05 37.25 C26.19 39.38, 20.25 40.62, 15.94 39.98 C11.62 39.34, 6.69 36.78, 4.15 33.39 C1.61 30.01, 0.54 24.08, 0.7 19.68 C0.86 15.27, 2.59 10.12, 5.13 6.96 C7.66 3.8, 13.92 1.74, 15.93 0.71 C17.94 -0.32, 17.14 0.6, 17.2 0.78" stroke="#000000" stroke-width="1" fill="none"></path></g><g transform="translate(236.4572582768929 185.75188432834142) rotate(0 2.1899948120117188 12.5)"><text x="2.1899948120117188" y="17.52" font-family="Virgil, Segoe UI Emoji" font-size="20px" fill="#000000" text-anchor="middle" style="white-space: pre;" direction="ltr" dominant-baseline="alphabetic">i</text></g><g transform="translate(10 67.40561120573079) rotate(0 6.399993896484375 12.5)"><text x="0" y="17.52" font-family="Virgil, Segoe UI Emoji" font-size="20px" fill="#000000" text-anchor="start" style="white-space: pre;" direction="ltr" dominant-baseline="alphabetic">6</text></g><g transform="translate(11.48462787601028 146.0908886342757) rotate(0 7.649993896484375 12.5)"><text x="0" y="17.52" font-family="Virgil, Segoe UI Emoji" font-size="20px" fill="#000000" text-anchor="start" style="white-space: pre;" direction="ltr" dominant-baseline="alphabetic">8</text></g><g transform="translate(87.20064955253457 206.4657555920271) rotate(0 6.399993896484375 12.5)"><text x="0" y="17.52" font-family="Virgil, Segoe UI Emoji" font-size="20px" fill="#000000" text-anchor="start" style="white-space: pre;" direction="ltr" dominant-baseline="alphabetic">6</text></g><g transform="translate(184.1963374518728 204.98112771601683) rotate(0 6.17999267578125 12.5)"><text x="0" y="17.52" font-family="Virgil, Segoe UI Emoji" font-size="20px" fill="#000000" text-anchor="start" style="white-space: pre;" direction="ltr" dominant-baseline="alphabetic">5</text></g><g transform="translate(84.23139380051401 12.474379793350465) rotate(0 6.399993896484375 12.5)"><text x="0" y="17.52" font-family="Virgil, Segoe UI Emoji" font-size="20px" fill="#000000" text-anchor="start" style="white-space: pre;" direction="ltr" dominant-baseline="alphabetic">4</text></g><g transform="translate(184.19633745187292 10) rotate(0 6.809989929199219 12.5)"><text x="0" y="17.52" font-family="Virgil, Segoe UI Emoji" font-size="20px" fill="#000000" text-anchor="start" style="white-space: pre;" direction="ltr" dominant-baseline="alphabetic">3</text></g><g transform="translate(255.45847550036643 66.9107352470607) rotate(0 6.17999267578125 12.5)"><text x="0" y="17.52" font-family="Virgil, Segoe UI Emoji" font-size="20px" fill="#000000" text-anchor="start" style="white-space: pre;" direction="ltr" dominant-baseline="alphabetic">5</text></g><g transform="translate(252.9840957070159 148.07039246895607) rotate(0 2.7099990844726562 12.5)"><text x="0" y="17.52" font-family="Virgil, Segoe UI Emoji" font-size="20px" fill="#000000" text-anchor="start" style="white-space: pre;" direction="ltr" dominant-baseline="alphabetic">1</text></g><g transform="translate(145.5960126756056 146.58576459294585) rotate(0 7.1199951171875 12.5)"><text x="0" y="17.52" font-family="Virgil, Segoe UI Emoji" font-size="20px" fill="#000000" text-anchor="start" style="white-space: pre;" direction="ltr" dominant-baseline="alphabetic">2</text></g><g transform="translate(152.02940013831682 66.91073524706076) rotate(0 5.379997253417969 12.5)"><text x="0" y="17.52" font-family="Virgil, Segoe UI Emoji" font-size="20px" fill="#000000" text-anchor="start" style="white-space: pre;" direction="ltr" dominant-baseline="alphabetic">7</text></g><g stroke-linecap="round"><g transform="translate(54.538836280308374 52.15668923089629) rotate(0 34.88875508624159 25.733549850844867)"><path d="M-0.3 0.82 C11.39 9.62, 57.69 43.24, 69.51 51.77 M1.74 0.21 C13.31 8.72, 56.99 41.52, 68.42 49.81" stroke="#2b8a3e" stroke-width="1" fill="none"></path></g></g><mask></mask><g stroke-linecap="round"><g transform="translate(155.49353184900747 132.8214704941215) rotate(0 33.651565189566355 25.48611187150982)"><path d="M-0.39 0 C10.82 8.65, 55.1 42.51, 66.46 51.01 M1.61 -1.04 C13.26 7.89, 57.79 43.66, 68.74 52.57" stroke="#000000" stroke-width="1" fill="none"></path></g></g><mask></mask><g transform="translate(192.60922874926445 135.20361754353365) rotate(0 6.399993896484375 12.5)"><text x="0" y="17.52" font-family="Virgil, Segoe UI Emoji" font-size="20px" fill="#000000" text-anchor="start" style="white-space: pre;" direction="ltr" dominant-baseline="alphabetic">4</text></g><g transform="translate(187.16559320389337 92.1494091392355) rotate(0 7.1199951171875 12.5)"><text x="0" y="17.52" font-family="Virgil, Segoe UI Emoji" font-size="20px" fill="#000000" text-anchor="start" style="white-space: pre;" direction="ltr" dominant-baseline="alphabetic">2</text></g><g transform="translate(97.09816872593643 59.48759586700936) rotate(0 6.399993896484375 12.5)"><text x="0" y="17.52" font-family="Virgil, Segoe UI Emoji" font-size="20px" fill="#000000" text-anchor="start" style="white-space: pre;" direction="ltr" dominant-baseline="alphabetic">4</text></g><g transform="translate(85.71602167652429 122.33684261811123) rotate(0 6.17999267578125 12.5)"><text x="0" y="17.52" font-family="Virgil, Segoe UI Emoji" font-size="20px" fill="#000000" text-anchor="start" style="white-space: pre;" direction="ltr" dominant-baseline="alphabetic">5</text></g><g stroke-linecap="round" transform="translate(17.491185382019154 18.388612811882638) rotate(0 20 20)"><path d="M4.49 6.55 C4.49 6.55, 4.49 6.55, 4.49 6.55 M4.49 6.55 C4.49 6.55, 4.49 6.55, 4.49 6.55 M0.95 16.72 C6.26 10.47, 11.4 5.15, 13.41 2.38 M0.95 16.72 C3.7 13.54, 6.79 10.11, 13.41 2.38 M1.34 22.37 C4.81 18.53, 10.3 13.79, 19.06 1.99 M1.34 22.37 C7.38 15.16, 13.32 9.11, 19.06 1.99 M3.05 26.5 C8.36 20.52, 11.43 15.29, 24.04 2.35 M3.05 26.5 C10.53 18.06, 17.69 9.74, 24.04 2.35 M4.76 30.63 C13.34 21.66, 22.23 12.01, 29.03 2.71 M4.76 30.63 C11.24 23.81, 16.74 16.48, 29.03 2.71 M7.12 34.01 C15.59 23.35, 25.22 13.04, 32.7 4.58 M7.12 34.01 C17.39 22.32, 27.68 10.93, 32.7 4.58 M10.79 35.88 C20.43 24.01, 29.35 13.16, 35.07 7.96 M10.79 35.88 C18.25 27.14, 24.77 19.93, 35.07 7.96 M13.81 38.51 C18.77 32.19, 23.85 26.65, 37.43 11.34 M13.81 38.51 C22.46 28.31, 31.42 18.08, 37.43 11.34 M18.14 39.62 C22.93 33.25, 28.79 26.1, 38.48 16.23 M18.14 39.62 C25.42 31.12, 34.02 21.3, 38.48 16.23 M24.44 38.47 C28.82 33.71, 31.64 28.94, 38.88 21.87 M24.44 38.47 C29.39 32.77, 33.63 27.99, 38.88 21.87" stroke="#12b886" stroke-width="0.5" fill="none"></path><path d="M16.24 0.79 C20.26 -0.2, 26.74 0.35, 30.42 2.37 C34.1 4.39, 36.99 8.73, 38.31 12.89 C39.63 17.06, 39.69 23.25, 38.35 27.35 C37.02 31.44, 34.01 35.47, 30.31 37.47 C26.6 39.46, 20.36 40.03, 16.14 39.31 C11.92 38.59, 7.65 36.44, 4.99 33.15 C2.33 29.86, 0.26 24.01, 0.16 19.59 C0.07 15.18, 1.54 9.84, 4.4 6.65 C7.27 3.46, 15.19 1.51, 17.35 0.44 C19.52 -0.62, 17.48 -0.1, 17.41 0.25 M16.26 0.07 C20.4 -1.03, 26.35 0.46, 30.06 2.47 C33.77 4.48, 36.98 8.09, 38.51 12.14 C40.03 16.2, 40.5 22.76, 39.22 26.81 C37.93 30.86, 34.52 34.31, 30.78 36.43 C27.04 38.55, 21.11 40.04, 16.77 39.53 C12.43 39.03, 7.59 36.56, 4.74 33.4 C1.9 30.24, -0.15 24.94, -0.31 20.57 C-0.46 16.2, 1.05 10.6, 3.83 7.2 C6.61 3.8, 14.35 1.22, 16.35 0.19 C18.36 -0.84, 15.86 0.72, 15.86 1.02" stroke="#000000" stroke-width="1" fill="none"></path></g><g transform="translate(30.821194842468373 25.888612811882638) rotate(0 6.669990539550781 12.5)"><text x="6.669990539550781" y="17.52" font-family="Virgil, Segoe UI Emoji" font-size="20px" fill="#000000" text-anchor="middle" style="white-space: pre;" direction="ltr" dominant-baseline="alphabetic">a</text></g></svg>