<svg version="1.1" xmlns="http://www.w3.org/2000/svg" viewBox="0 0 314.239990234375 320" width="628.47998046875" height="640" filter="invert(93%) hue-rotate(180deg)">
  <!-- svg-source:excalidraw -->
  
  <defs>
    <style class="style-fonts">
      @font-face {
        font-family: "Virgil";
        src: url("https://excalidraw.com/Virgil.woff2");
      }
      @font-face {
        font-family: "Cascadia";
        src: url("https://excalidraw.com/Cascadia.woff2");
      }
      @font-face {
        font-family: "Assistant";
        src: url("https://excalidraw.com/Assistant-Regular.woff2");
      }
    </style>
    
  </defs>
  <rect x="0" y="0" width="314.239990234375" height="320" fill="#ffffff"></rect><g stroke-linecap="round"><g transform="translate(107.37701416015625 48.95082092285156) rotate(0 31.562202715128663 -0.14492868176193952)"><path d="M-1.14 0.18 C9.28 -0.03, 52.63 -0.79, 63.27 -0.85 M0.46 -0.78 C10.66 -0.86, 52.19 0.07, 62.39 0.4" stroke="#c92a2a" stroke-width="1" fill="none"></path></g></g><mask></mask><g stroke-linecap="round" transform="translate(170 30) rotate(0 20 17.5)"><path d="M5.64 4.9 C5.64 4.9, 5.64 4.9, 5.64 4.9 M5.64 4.9 C5.64 4.9, 5.64 4.9, 5.64 4.9 M0.13 17.33 C3.71 13.53, 6.99 10.42, 13.25 2.24 M0.13 17.33 C2.83 13.45, 6.29 10.79, 13.25 2.24 M1.83 21.47 C8.69 13.22, 15.12 5.53, 19.55 1.09 M1.83 21.47 C5.62 16.82, 10.2 11.57, 19.55 1.09 M3.54 25.6 C10.48 17.04, 17.11 9.76, 24.53 1.45 M3.54 25.6 C8.94 19.04, 14.27 13.34, 24.53 1.45 M5.9 28.98 C13.13 21.07, 19.74 12.47, 28.86 2.57 M5.9 28.98 C12.65 20.51, 20.5 12.17, 28.86 2.57 M9.58 30.85 C15.98 22.83, 23.94 13.66, 32.54 4.44 M9.58 30.85 C17.37 21.86, 25.88 12.75, 32.54 4.44 M12.6 33.47 C19.55 24.45, 25.95 17.24, 35.56 7.06 M12.6 33.47 C21.53 23.51, 30.46 13.03, 35.56 7.06 M16.93 34.59 C24.19 24.9, 31.7 17.31, 37.92 10.44 M16.93 34.59 C23.6 26.36, 30.83 18.88, 37.92 10.44 M22.57 34.19 C28.78 27.12, 34.01 19.92, 39.63 14.57 M22.57 34.19 C28.78 26.68, 35.71 19.31, 39.63 14.57 M28.21 33.8 C31.8 29.55, 36.98 25.22, 38.71 21.72 M28.21 33.8 C31.63 30.24, 34.46 26.21, 38.71 21.72" stroke="#fa5252" stroke-width="0.5" fill="none"></path><path d="M18.21 0.12 C22.27 -0.54, 28.05 0.81, 31.57 2.94 C35.09 5.07, 38.18 9.32, 39.35 12.91 C40.52 16.5, 40.33 21.06, 38.58 24.49 C36.83 27.92, 32.82 31.79, 28.85 33.5 C24.88 35.21, 18.89 35.76, 14.77 34.75 C10.66 33.74, 6.66 30.49, 4.14 27.41 C1.61 24.34, -0.62 20.05, -0.36 16.29 C-0.1 12.53, 2.47 7.63, 5.67 4.85 C8.88 2.08, 16.55 0.47, 18.86 -0.34 C21.16 -1.16, 19.52 -0.4, 19.49 -0.04 M22.61 -0.44 C26.69 -0.35, 32.04 2.48, 34.99 5.37 C37.94 8.25, 40.34 12.93, 40.33 16.85 C40.33 20.78, 37.78 25.89, 34.97 28.9 C32.16 31.92, 27.47 34.17, 23.47 34.95 C19.48 35.73, 14.78 35.37, 10.99 33.58 C7.19 31.79, 2.42 27.75, 0.69 24.22 C-1.05 20.69, -0.89 16.08, 0.6 12.39 C2.09 8.7, 5.93 4.1, 9.63 2.06 C13.32 0.03, 20.64 0.43, 22.77 0.17 C24.9 -0.09, 22.52 0.19, 22.41 0.5" stroke="#000000" stroke-width="1" fill="none"></path></g><g transform="translate(184.92000579833984 35) rotate(0 5.079994201660156 12.5)"><text x="5.079994201660156" y="17.52" font-family="Virgil, Segoe UI Emoji" font-size="20px" fill="#000000" text-anchor="middle" style="white-space: pre;" direction="ltr" dominant-baseline="alphabetic">b</text></g><g stroke-linecap="round" transform="translate(250 90) rotate(0 20 17.5)"><path d="M7.37 3.75 C7.37 3.75, 7.37 3.75, 7.37 3.75 M7.37 3.75 C7.37 3.75, 7.37 3.75, 7.37 3.75 M1.2 16.94 C4.39 11.8, 9.67 7.19, 14.32 1.85 M1.2 16.94 C4.54 13, 6.97 10.1, 14.32 1.85 M2.25 21.83 C5.86 16.77, 11.21 11.39, 20.62 0.7 M2.25 21.83 C8.15 15.36, 13.65 8.62, 20.62 0.7 M3.3 26.72 C8.12 20.68, 14.47 14.86, 24.95 1.82 M3.3 26.72 C7.96 21.77, 12.85 16.14, 24.95 1.82 M6.32 29.35 C15.1 19.33, 23.35 8.7, 29.28 2.93 M6.32 29.35 C12.46 22.54, 18.45 14.96, 29.28 2.93 M9.34 31.97 C18.26 21.28, 26.41 12.18, 33.61 4.05 M9.34 31.97 C16.73 23.23, 24.49 14.69, 33.61 4.05 M12.36 34.59 C18.28 28.18, 22.42 23.35, 35.98 7.42 M12.36 34.59 C19.77 26.89, 26.53 18.01, 35.98 7.42 M18 34.2 C22.9 29.07, 28.05 23.34, 37.68 11.56 M18 34.2 C23.27 28.35, 28.44 22.67, 37.68 11.56 M23.65 33.81 C29.64 27.95, 33.14 21.62, 40.05 14.94 M23.65 33.81 C27.98 29.11, 31.72 24.39, 40.05 14.94 M30.6 31.9 C33.66 28.87, 37.2 25.23, 39.13 22.09 M30.6 31.9 C33.48 28.13, 36.63 24.98, 39.13 22.09" stroke="#fa5252" stroke-width="0.5" fill="none"></path><path d="M20.47 0.06 C24.57 -0.12, 30.3 1.53, 33.56 4.02 C36.82 6.51, 39.48 11.19, 40.04 15 C40.6 18.81, 39.13 23.73, 36.94 26.87 C34.75 30.01, 31 32.65, 26.9 33.84 C22.81 35.03, 16.44 35.4, 12.36 34.03 C8.27 32.65, 4.37 28.97, 2.39 25.59 C0.42 22.21, -0.36 17.42, 0.51 13.73 C1.38 10.05, 4.13 5.74, 7.61 3.47 C11.09 1.2, 18.85 0.62, 21.41 0.11 C23.96 -0.39, 22.86 0.22, 22.94 0.46 M16.14 0.2 C19.95 -0.59, 25.02 0.7, 28.67 2.54 C32.31 4.37, 36.2 7.7, 38.01 11.21 C39.83 14.71, 40.91 20, 39.57 23.57 C38.22 27.14, 33.72 30.67, 29.93 32.63 C26.14 34.58, 20.94 35.93, 16.82 35.28 C12.71 34.63, 8.08 31.59, 5.24 28.73 C2.41 25.87, 0.08 21.79, -0.17 18.13 C-0.43 14.46, 1.16 9.66, 3.72 6.72 C6.29 3.78, 13.3 1.57, 15.22 0.49 C17.15 -0.58, 15.18 0.01, 15.27 0.27" stroke="#000000" stroke-width="1" fill="none"></path></g><g transform="translate(264.9800033569336 95) rotate(0 5.019996643066406 12.5)"><text x="5.019996643066406" y="17.52" font-family="Virgil, Segoe UI Emoji" font-size="20px" fill="#000000" text-anchor="middle" style="white-space: pre;" direction="ltr" dominant-baseline="alphabetic">c</text></g><g stroke-linecap="round"><g transform="translate(271.4535241246596 131.8240021712985) rotate(0 0 40)"><path d="M-0.38 0.15 C-0.37 13.56, 0.19 67.54, 0.13 80.96 M1.63 -0.81 C1.48 12.23, -0.78 66.09, -0.75 79.34" stroke="#c92a2a" stroke-width="1" fill="none"></path></g></g><mask></mask><g stroke-linecap="round" transform="translate(250 210) rotate(0 20 20)"><path d="M5.71 6.28 C5.71 6.28, 5.71 6.28, 5.71 6.28 M5.71 6.28 C5.71 6.28, 5.71 6.28, 5.71 6.28 M0.85 17.97 C5.1 14.95, 6.51 10.1, 15.28 1.36 M0.85 17.97 C5.07 12.41, 9.88 7.72, 15.28 1.36 M1.9 22.85 C5.44 17.94, 11.1 12.19, 20.93 0.97 M1.9 22.85 C7.74 16.09, 13.36 10.09, 20.93 0.97 M2.95 27.74 C10.18 19.55, 18.25 11.8, 25.26 2.08 M2.95 27.74 C9.67 20.45, 15.76 12.86, 25.26 2.08 M4.66 31.88 C9.43 26.15, 15.25 20.07, 30.25 2.44 M4.66 31.88 C9.73 26.11, 14.56 19.94, 30.25 2.44 M7.68 34.5 C14.14 26.87, 20.55 19.85, 32.61 5.82 M7.68 34.5 C15.01 26.7, 21.9 17.96, 32.61 5.82 M11.35 36.37 C18.29 27.95, 27.93 18.11, 34.97 9.2 M11.35 36.37 C17.81 29.7, 23.52 23.11, 34.97 9.2 M15.03 38.24 C21.37 32.06, 26.72 25.63, 37.33 12.58 M15.03 38.24 C21.72 31.06, 28.37 22.56, 37.33 12.58 M19.36 39.35 C24.09 33.98, 29.79 27.34, 39.04 16.71 M19.36 39.35 C24.48 33.93, 29.06 28.93, 39.04 16.71 M25.66 38.2 C30.11 32.28, 34.08 27.23, 38.78 23.11 M25.66 38.2 C30.2 33.47, 34.86 28.44, 38.78 23.11" stroke="#fa5252" stroke-width="0.5" fill="none"></path><path d="M16.84 0.54 C20.86 -0.39, 27.26 0.5, 30.87 2.72 C34.49 4.93, 37.26 9.8, 38.53 13.84 C39.81 17.88, 40 23.06, 38.53 26.95 C37.05 30.85, 33.42 35.14, 29.7 37.18 C25.97 39.23, 20.44 39.98, 16.19 39.21 C11.95 38.43, 6.87 35.82, 4.22 32.53 C1.57 29.24, 0.09 23.79, 0.3 19.46 C0.51 15.12, 2.58 9.76, 5.49 6.54 C8.4 3.31, 15.51 1.07, 17.77 0.09 C20.03 -0.89, 18.95 0.38, 19.03 0.64 M23.91 0.99 C27.93 1.42, 31.94 4.15, 34.55 7.38 C37.16 10.6, 39.41 16.2, 39.56 20.34 C39.71 24.49, 38.16 29.05, 35.46 32.27 C32.76 35.48, 27.7 38.81, 23.38 39.65 C19.07 40.5, 13.38 39.43, 9.6 37.33 C5.81 35.23, 2.17 31.13, 0.67 27.04 C-0.84 22.95, -0.9 16.85, 0.56 12.79 C2.02 8.73, 5.58 4.78, 9.44 2.69 C13.31 0.6, 21.34 0.73, 23.73 0.28 C26.12 -0.18, 23.96 -0.44, 23.79 -0.06" stroke="#000000" stroke-width="1" fill="none"></path></g><g transform="translate(264.3100051879883 217.5) rotate(0 5.689994812011719 12.5)"><text x="5.689994812011719" y="17.52" font-family="Virgil, Segoe UI Emoji" font-size="20px" fill="#000000" text-anchor="middle" style="white-space: pre;" direction="ltr" dominant-baseline="alphabetic">d</text></g><g transform="translate(130 10) rotate(0 6.399993896484375 12.5)"><text x="0" y="17.52" font-family="Virgil, Segoe UI Emoji" font-size="20px" fill="#000000" text-anchor="start" style="white-space: pre;" direction="ltr" dominant-baseline="alphabetic">4</text></g><g transform="translate(250 30) rotate(0 5.379997253417969 12.5)"><text x="0" y="17.52" font-family="Virgil, Segoe UI Emoji" font-size="20px" fill="#000000" text-anchor="start" style="white-space: pre;" direction="ltr" dominant-baseline="alphabetic">7</text></g><g transform="translate(290 150) rotate(0 7.1199951171875 12.5)"><text x="0" y="17.52" font-family="Virgil, Segoe UI Emoji" font-size="20px" fill="#000000" text-anchor="start" style="white-space: pre;" direction="ltr" dominant-baseline="alphabetic">2</text></g><g stroke-linecap="round"><g transform="translate(208.56664086879232 55.30418670102955) rotate(0 23.372471801931972 17.872496188059444)"><path d="M0.49 -0.22 C8.23 5.96, 38.34 30.01, 45.9 36.06 M-0.71 -1.37 C7.45 4.52, 40 28.22, 48.16 34.11" stroke="#000000" stroke-width="1" fill="none"></path></g></g><mask></mask><g stroke-linecap="round"><g transform="translate(252.65959041845986 246.0162988248747) rotate(0 -41.311431884765625 21.836074829101562)"><path d="M-0.85 0.32 C-14.85 7.7, -69.75 36.88, -83.54 44.05 M0.91 -0.56 C-12.77 6.46, -67.62 34.62, -81.3 42.12" stroke="#c92a2a" stroke-width="1" fill="none"></path></g></g><mask></mask><g stroke-linecap="round" transform="translate(130 270) rotate(0 20 20)"><path d="M4.87 6.89 C4.87 6.89, 4.87 6.89, 4.87 6.89 M4.87 6.89 C4.87 6.89, 4.87 6.89, 4.87 6.89 M1.33 17.06 C3.62 13.59, 8.04 9.27, 15.11 1.21 M1.33 17.06 C5.58 12.09, 9.63 7.9, 15.11 1.21 M1.73 22.7 C7.65 15.99, 14.43 9.72, 20.1 1.57 M1.73 22.7 C7.31 16.71, 12.26 10.43, 20.1 1.57 M3.43 26.83 C7.41 22.02, 12.43 16.85, 25.08 1.93 M3.43 26.83 C7.71 21.99, 11.73 16.74, 25.08 1.93 M4.48 31.72 C11.11 23.89, 17.7 16.67, 30.07 2.29 M4.48 31.72 C12 23.7, 19.09 14.75, 30.07 2.29 M7.5 34.35 C14.88 25.42, 24.95 15.08, 32.43 5.67 M7.5 34.35 C14.3 27.3, 20.34 20.32, 32.43 5.67 M11.18 36.22 C17.87 29.64, 23.57 22.81, 34.79 9.05 M11.18 36.22 C18.25 28.59, 25.3 19.65, 34.79 9.05 M14.85 38.09 C20.49 31.67, 27.08 24, 37.81 11.67 M14.85 38.09 C20.74 31.75, 26.11 25.85, 37.81 11.67 M19.18 39.2 C25.69 30.9, 31.74 23.46, 38.21 17.31 M19.18 39.2 C25.73 32.16, 32.37 24.85, 38.21 17.31 M25.48 38.05 C28 35.17, 30.52 31.29, 38.6 22.96 M25.48 38.05 C28.74 34.93, 31.67 30.86, 38.6 22.96" stroke="#fa5252" stroke-width="0.5" fill="none"></path><path d="M16.36 0.35 C20.4 -0.75, 26.43 0.15, 30.07 2.22 C33.71 4.28, 36.78 8.66, 38.2 12.72 C39.62 16.79, 39.91 22.64, 38.59 26.62 C37.27 30.6, 33.83 34.49, 30.28 36.62 C26.74 38.76, 21.52 39.94, 17.34 39.43 C13.15 38.92, 8 36.81, 5.19 33.57 C2.38 30.33, 0.57 24.4, 0.47 20 C0.37 15.61, 1.83 10.5, 4.58 7.22 C7.34 3.94, 14.92 1.45, 17.01 0.32 C19.09 -0.81, 17.07 0.18, 17.07 0.45 M19.12 -0.46 C23.2 -0.79, 28.7 1.68, 32.18 4.47 C35.66 7.25, 39.04 12.16, 40 16.25 C40.96 20.34, 40.14 25.23, 37.94 29.02 C35.74 32.81, 30.93 37.24, 26.78 38.97 C22.64 40.7, 17.14 40.81, 13.07 39.4 C8.99 37.99, 4.53 34.41, 2.33 30.53 C0.13 26.65, -0.9 20.39, -0.12 16.14 C0.66 11.89, 3.71 7.69, 7.01 5.03 C10.32 2.37, 17.51 1.04, 19.71 0.18 C21.91 -0.67, 20.28 -0.51, 20.21 -0.12" stroke="#000000" stroke-width="1" fill="none"></path></g><g transform="translate(144.5300064086914 277.5) rotate(0 5.469993591308594 12.5)"><text x="5.469993591308594" y="17.52" font-family="Virgil, Segoe UI Emoji" font-size="20px" fill="#000000" text-anchor="middle" style="white-space: pre;" direction="ltr" dominant-baseline="alphabetic">e</text></g><g stroke-linecap="round" transform="translate(130 150) rotate(0 20 20)"><path d="M6.74 4.53 C6.74 4.53, 6.74 4.53, 6.74 4.53 M6.74 4.53 C6.74 4.53, 6.74 4.53, 6.74 4.53 M1.23 16.97 C5.56 11.4, 9.58 7.13, 14.35 1.87 M1.23 16.97 C4.65 12.7, 8.01 9.27, 14.35 1.87 M1.62 22.61 C7.6 16.18, 12.94 9.04, 20.65 0.73 M1.62 22.61 C7.13 15.56, 13.74 8.64, 20.65 0.73 M2.67 27.5 C8.87 19.72, 16.62 10.8, 24.98 1.84 M2.67 27.5 C10.24 18.77, 18.53 9.91, 24.98 1.84 M4.38 31.63 C11.74 22.15, 18.54 14.47, 28.66 3.71 M4.38 31.63 C13.82 21.09, 23.25 10.05, 28.66 3.71 M8.06 33.5 C16.77 22.12, 25.74 12.85, 32.99 4.82 M8.06 33.5 C16.01 23.77, 24.53 14.81, 32.99 4.82 M11.07 36.13 C19.92 25.99, 27.77 15.78, 35.35 8.2 M11.07 36.13 C19.97 25.55, 29.59 15.09, 35.35 8.2 M14.09 38.75 C22.4 29.04, 32.69 19.26, 37.06 12.34 M14.09 38.75 C21.38 30.75, 27.97 22.19, 37.06 12.34 M19.08 39.11 C24.31 32.95, 29.41 28.31, 39.42 15.72 M19.08 39.11 C26.14 30.37, 33.88 21.42, 39.42 15.72 M24.72 38.72 C28.73 33.69, 35.15 28.55, 39.81 21.36 M24.72 38.72 C29.99 31.94, 36.15 25.55, 39.81 21.36" stroke="#fa5252" stroke-width="0.5" fill="none"></path><path d="M19.15 0.01 C23.07 -0.25, 28.78 2.03, 32.17 4.64 C35.56 7.24, 38.54 11.54, 39.49 15.65 C40.44 19.76, 39.88 25.4, 37.87 29.29 C35.86 33.18, 31.42 37.47, 27.44 39 C23.47 40.53, 18.08 39.95, 14.03 38.46 C9.97 36.98, 5.35 33.65, 3.1 30.07 C0.85 26.5, -0.03 21.21, 0.53 17 C1.09 12.79, 3.12 7.72, 6.48 4.83 C9.83 1.95, 18.12 0.47, 20.65 -0.32 C23.19 -1.11, 21.7 -0.22, 21.7 0.09 M17.29 0.22 C21.44 -0.77, 27.29 -0.12, 30.84 2.15 C34.4 4.41, 37.38 9.56, 38.62 13.82 C39.86 18.09, 39.88 23.74, 38.3 27.74 C36.72 31.74, 32.91 35.95, 29.15 37.82 C25.39 39.69, 19.85 39.82, 15.74 38.97 C11.63 38.12, 7.12 35.91, 4.49 32.71 C1.86 29.51, -0.17 24.17, -0.02 19.77 C0.14 15.37, 2.68 9.48, 5.43 6.31 C8.18 3.14, 14.64 1.8, 16.47 0.76 C18.31 -0.28, 16.3 -0.27, 16.44 0.08" stroke="#000000" stroke-width="1" fill="none"></path></g><g transform="translate(145.06000518798828 157.5) rotate(0 4.939994812011719 12.5)"><text x="4.939994812011719" y="17.52" font-family="Virgil, Segoe UI Emoji" font-size="20px" fill="#000000" text-anchor="middle" style="white-space: pre;" direction="ltr" dominant-baseline="alphabetic">h</text></g><g stroke-linecap="round"><g transform="translate(90.45754300430417 69.30460411443374) rotate(0 23.672103881835938 39.47538757324219)"><path d="M-0.55 -1.02 C7.36 11.81, 39.29 64.81, 47.36 78.09 M1.36 1.06 C9.12 14.52, 38.75 66.05, 46.42 79.18" stroke="#c92a2a" stroke-width="1" fill="none"></path></g></g><mask></mask><g stroke-linecap="round"><g transform="translate(150.63810937330126 190.57755862548947) rotate(0 -0.3190546866506345 39.71122068725526)"><path d="M0.02 -0.86 C0.09 12.5, 0.2 65.6, -0.09 79.12 M-1.43 1.3 C-1.42 14.93, -1.09 67.66, -0.76 80.5" stroke="#000000" stroke-width="1" fill="none"></path></g></g><mask></mask><g stroke-linecap="round" transform="translate(10 150) rotate(0 20 17.5)"><path d="M3.45 6.97 C3.45 6.97, 3.45 6.97, 3.45 6.97 M3.45 6.97 C3.45 6.97, 3.45 6.97, 3.45 6.97 M0.56 16.39 C3.45 12.42, 7.9 7.92, 13.02 2.05 M0.56 16.39 C5.36 10.76, 9.85 6.05, 13.02 2.05 M1.61 21.28 C6.11 16.04, 10.9 10.42, 18.67 1.65 M1.61 21.28 C7.4 14.77, 12.63 8.78, 18.67 1.65 M3.32 25.41 C7.48 21.73, 11.37 16.11, 23.66 2.01 M3.32 25.41 C8.36 18.67, 14.34 13.05, 23.66 2.01 M5.68 28.79 C11.34 23.1, 16.01 16.55, 29.3 1.62 M5.68 28.79 C14.43 18, 24.22 8.07, 29.3 1.62 M9.35 30.66 C16.01 22.73, 24.11 14.68, 32.32 4.24 M9.35 30.66 C15.84 22.64, 22.36 15.97, 32.32 4.24 M13.03 32.53 C19.49 25.49, 26.29 17.53, 35.34 6.87 M13.03 32.53 C19.21 26.14, 25.38 18.95, 35.34 6.87 M16.7 34.4 C25.31 24.44, 32.73 14.99, 38.35 9.49 M16.7 34.4 C21.23 29.14, 26.49 23.62, 38.35 9.49 M22.35 34 C28.51 26.41, 34.17 20.37, 38.75 15.13 M22.35 34 C27.05 29.4, 31.66 24.14, 38.75 15.13 M28.65 32.85 C31.78 29.09, 35.58 23.84, 39.14 20.78 M28.65 32.85 C31.26 29.11, 35 25.85, 39.14 20.78" stroke="#fa5252" stroke-width="0.5" fill="none"></path><path d="M15.69 0.8 C19.62 -0.24, 25.72 -0.16, 29.54 1.43 C33.36 3.03, 36.96 6.82, 38.61 10.36 C40.26 13.9, 40.77 19.04, 39.42 22.66 C38.08 26.27, 34.2 30.07, 30.56 32.05 C26.92 34.03, 21.76 35.04, 17.56 34.54 C13.36 34.05, 8.26 31.81, 5.35 29.06 C2.44 26.31, 0.37 21.75, 0.1 18.02 C-0.18 14.28, 1.03 9.57, 3.71 6.66 C6.4 3.75, 13.99 1.52, 16.21 0.55 C18.43 -0.42, 17.06 0.66, 17.04 0.87 M21.31 0.37 C25.39 0.27, 30.69 1.87, 33.81 4.51 C36.92 7.15, 39.58 12.33, 40 16.2 C40.42 20.08, 38.73 24.81, 36.33 27.76 C33.93 30.71, 29.82 32.88, 25.6 33.9 C21.38 34.91, 15.08 35.46, 11.03 33.86 C6.98 32.26, 3 27.68, 1.29 24.3 C-0.41 20.93, -0.51 17.26, 0.8 13.62 C2.11 9.98, 5.67 4.69, 9.13 2.45 C12.58 0.21, 19.51 0.52, 21.53 0.18 C23.55 -0.17, 21.35 0.2, 21.27 0.38" stroke="#000000" stroke-width="1" fill="none"></path></g><g transform="translate(24.990005493164062 155) rotate(0 5.0099945068359375 12.5)"><text x="5.0099945068359375" y="17.52" font-family="Virgil, Segoe UI Emoji" font-size="20px" fill="#000000" text-anchor="middle" style="white-space: pre;" direction="ltr" dominant-baseline="alphabetic">g</text></g><g stroke-linecap="round"><g transform="translate(71.0491943359375 66.85246276855469) rotate(0 -20.89554580464494 41.579637129972696)"><path d="M-0.82 0.49 C-7.46 14.4, -33.93 70.42, -40.94 84.28 M0.95 -0.31 C-5.68 13.23, -34.52 69.1, -41.45 82.74" stroke="#000000" stroke-width="1" fill="none"></path></g></g><mask></mask><g stroke-linecap="round" transform="translate(30 250) rotate(0 20 17.5)"><path d="M3.39 6.92 C3.39 6.92, 3.39 6.92, 3.39 6.92 M3.39 6.92 C3.39 6.92, 3.39 6.92, 3.39 6.92 M1.16 15.59 C4.85 11.79, 7.93 7.34, 12.97 2 M1.16 15.59 C4.44 11.16, 8.72 6.86, 12.97 2 M1.56 21.23 C6.07 15.39, 12.13 8.42, 18.61 1.61 M1.56 21.23 C7.3 14.56, 13.8 7.77, 18.61 1.61 M3.26 25.36 C9.41 17.27, 15.01 10.98, 23.6 1.97 M3.26 25.36 C11.2 16.53, 19.14 7.2, 23.6 1.97 M5.63 28.74 C13.61 18.2, 21.85 9.78, 28.59 2.33 M5.63 28.74 C12.94 19.76, 20.82 11.54, 28.59 2.33 M8.64 31.37 C17.01 21.79, 24.39 12.12, 31.61 4.95 M8.64 31.37 C17.05 21.34, 26.19 11.44, 31.61 4.95 M12.98 32.48 C20.77 23.36, 30.55 14.15, 34.63 7.57 M12.98 32.48 C19.86 24.95, 26.05 16.86, 34.63 7.57 M16.65 34.35 C22.04 28.01, 27.29 23.19, 37.64 10.2 M16.65 34.35 C23.96 25.32, 31.94 16.09, 37.64 10.2 M22.29 33.95 C26.72 28.46, 33.54 22.84, 38.7 15.09 M22.29 33.95 C28.04 26.62, 34.68 19.68, 38.7 15.09 M29.25 32.05 C32.11 28.43, 33.83 26.88, 39.09 20.73 M29.25 32.05 C32.34 28.78, 34.86 25.13, 39.09 20.73" stroke="#fa5252" stroke-width="0.5" fill="none"></path><path d="M15.63 0.53 C19.44 -0.49, 24.81 0.11, 28.59 1.72 C32.37 3.33, 36.57 6.8, 38.33 10.2 C40.09 13.6, 40.35 18.51, 39.15 22.09 C37.94 25.68, 34.72 29.61, 31.1 31.69 C27.48 33.77, 21.7 34.89, 17.42 34.57 C13.15 34.26, 8.36 32.39, 5.46 29.78 C2.56 27.17, 0.37 22.7, 0.03 18.89 C-0.31 15.07, 0.6 10.03, 3.43 6.88 C6.26 3.73, 14.48 1.12, 17.04 -0.01 C19.59 -1.15, 18.72 -0.2, 18.77 0.08 M15.67 0.59 C19.65 -0.51, 26 -0.33, 29.73 1.46 C33.45 3.25, 36.56 7.88, 38.02 11.34 C39.48 14.8, 39.71 18.63, 38.51 22.23 C37.31 25.83, 34.27 30.98, 30.84 32.96 C27.4 34.95, 22.24 34.75, 17.92 34.16 C13.61 33.57, 8.04 32.07, 4.97 29.42 C1.91 26.76, -0.25 22.06, -0.48 18.21 C-0.71 14.36, 0.92 9.23, 3.59 6.31 C6.26 3.39, 13.59 1.59, 15.55 0.68 C17.5 -0.23, 15.16 0.74, 15.31 0.86" stroke="#000000" stroke-width="1" fill="none"></path></g><g transform="translate(44.99000549316406 255) rotate(0 5.0099945068359375 12.5)"><text x="5.0099945068359375" y="17.52" font-family="Virgil, Segoe UI Emoji" font-size="20px" fill="#000000" text-anchor="middle" style="white-space: pre;" direction="ltr" dominant-baseline="alphabetic">g</text></g><g stroke-linecap="round"><g transform="translate(30 190) rotate(0 10 30)"><path d="M-0.7 0.71 C2.84 10.49, 16.72 49.3, 20.12 59.18 M1.13 0.04 C4.62 9.91, 16.3 50.08, 19.24 60.29" stroke="#c92a2a" stroke-width="1" fill="none"></path></g></g><mask></mask><g stroke-linecap="round"><g transform="translate(71.75261438013055 269.54874328150413) rotate(0 30 10)"><path d="M0.12 -0.82 C10.19 2.39, 49.85 16.5, 59.7 19.96 M-1.27 1.36 C8.67 4.71, 48.1 18.17, 58.6 21.48" stroke="#c92a2a" stroke-width="1" fill="none"></path></g></g><mask></mask><g stroke-linecap="round"><g transform="translate(50 170) rotate(0 40 0)"><path d="M-0.3 -0.04 C12.89 0.09, 65.99 -0.1, 79.22 -0.06 M1.75 -1.11 C15.3 -0.71, 68.22 0.99, 81.52 1.44" stroke="#000000" stroke-width="1" fill="none"></path></g></g><mask></mask><g stroke-linecap="round"><g transform="translate(167.80864770275542 163.09992576912046) rotate(0 41.882602418153546 -23.402410394325855)"><path d="M-0.78 -0.06 C13.07 -7.83, 68.92 -38.73, 82.85 -46.64 M1.01 -1.14 C15.26 -8.69, 71.05 -37.44, 85.08 -45.01" stroke="#000000" stroke-width="1" fill="none"></path></g></g><mask></mask><g stroke-linecap="round"><g transform="translate(170 170) rotate(0 41.573822021484375 21.573745727539062)"><path d="M-0.92 0.17 C12.91 7.25, 68.28 35.26, 82.16 42.41 M0.8 -0.79 C15.06 6.43, 70.35 36.03, 84.36 43.56" stroke="#c92a2a" stroke-width="1" fill="none"></path></g></g><mask></mask><g transform="translate(229.65443420410156 279.6321487426758) rotate(0 6.17999267578125 12.5)"><text x="0" y="17.52" font-family="Virgil, Segoe UI Emoji" font-size="20px" fill="#000000" text-anchor="start" style="white-space: pre;" direction="ltr" dominant-baseline="alphabetic">5</text></g><g transform="translate(197.65443420410156 188.63214874267578) rotate(0 7.1199951171875 12.5)"><text x="0" y="17.52" font-family="Virgil, Segoe UI Emoji" font-size="20px" fill="#000000" text-anchor="start" style="white-space: pre;" direction="ltr" dominant-baseline="alphabetic">2</text></g><g transform="translate(87.65443420410156 282.6321487426758) rotate(0 6.399993896484375 12.5)"><text x="0" y="17.52" font-family="Virgil, Segoe UI Emoji" font-size="20px" fill="#000000" text-anchor="start" style="white-space: pre;" direction="ltr" dominant-baseline="alphabetic">6</text></g><g transform="translate(128.65443420410156 215.63214874267578) rotate(0 5.379997253417969 12.5)"><text x="0" y="17.52" font-family="Virgil, Segoe UI Emoji" font-size="20px" fill="#000000" text-anchor="start" style="white-space: pre;" direction="ltr" dominant-baseline="alphabetic">7</text></g><g transform="translate(19.654434204101562 207.63214874267578) rotate(0 6.17999267578125 12.5)"><text x="0" y="17.52" font-family="Virgil, Segoe UI Emoji" font-size="20px" fill="#000000" text-anchor="start" style="white-space: pre;" direction="ltr" dominant-baseline="alphabetic">5</text></g><g transform="translate(30.654434204101562 86.63214874267578) rotate(0 6.399993896484375 12.5)"><text x="0" y="17.52" font-family="Virgil, Segoe UI Emoji" font-size="20px" fill="#000000" text-anchor="start" style="white-space: pre;" direction="ltr" dominant-baseline="alphabetic">6</text></g><g transform="translate(82.65443420410156 142.63214874267578) rotate(0 7.649993896484375 12.5)"><text x="0" y="17.52" font-family="Virgil, Segoe UI Emoji" font-size="20px" fill="#000000" text-anchor="start" style="white-space: pre;" direction="ltr" dominant-baseline="alphabetic">8</text></g><g transform="translate(125.65443420410156 89.63214874267578) rotate(0 6.399993896484375 12.5)"><text x="0" y="17.52" font-family="Virgil, Segoe UI Emoji" font-size="20px" fill="#000000" text-anchor="start" style="white-space: pre;" direction="ltr" dominant-baseline="alphabetic">4</text></g><g transform="translate(208.65443420410156 107.63214874267578) rotate(0 6.809989929199219 12.5)"><text x="0" y="17.52" font-family="Virgil, Segoe UI Emoji" font-size="20px" fill="#000000" text-anchor="start" style="white-space: pre;" direction="ltr" dominant-baseline="alphabetic">3</text></g><g stroke-linecap="round" transform="translate(64.2294921875 34.19671630859375) rotate(0 20 17.5)"><path d="M5.74 4.99 C5.74 4.99, 5.74 4.99, 5.74 4.99 M5.74 4.99 C5.74 4.99, 5.74 4.99, 5.74 4.99 M0.89 16.67 C6.16 11.13, 11.86 5.5, 14.01 1.58 M0.89 16.67 C4.57 11.52, 9.24 7.6, 14.01 1.58 M1.94 21.56 C7.04 15.78, 12.99 8.58, 20.31 0.43 M1.94 21.56 C8.1 14.51, 14.94 7.14, 20.31 0.43 M3.64 25.69 C10.2 18.17, 18.36 8.75, 24.64 1.54 M3.64 25.69 C9.08 19.36, 14.49 12.8, 24.64 1.54 M6.01 29.07 C13.67 21.3, 19.77 13.06, 28.97 2.66 M6.01 29.07 C14.39 19.42, 22.69 10.1, 28.97 2.66 M9.68 30.94 C15.13 23.03, 21.57 17.03, 32.64 4.53 M9.68 30.94 C16.58 23.01, 23.36 15.8, 32.64 4.53 M12.7 33.56 C20.88 26.11, 27.12 17.3, 35.01 7.9 M12.7 33.56 C20.54 24.48, 29.39 15.21, 35.01 7.9 M17.03 34.68 C23.15 28.55, 27.97 21.62, 37.37 11.28 M17.03 34.68 C24.52 25.93, 32.81 16.86, 37.37 11.28 M22.67 34.28 C28.15 27.97, 33.01 21.91, 39.73 14.66 M22.67 34.28 C29.33 27.1, 35.42 19.53, 39.73 14.66 M28.32 33.89 C30.52 31.23, 33.9 28.48, 38.81 21.81 M28.32 33.89 C31.91 29.68, 35.97 25.47, 38.81 21.81" stroke="#fa5252" stroke-width="0.5" fill="none"></path><path d="M19.34 -0.43 C23.32 -0.96, 28.67 0.78, 31.96 3.18 C35.25 5.58, 38.2 10.18, 39.09 13.96 C39.98 17.74, 39.18 22.6, 37.31 25.89 C35.44 29.17, 31.72 32.33, 27.85 33.68 C23.97 35.03, 18.17 35.15, 14.05 34 C9.93 32.85, 5.46 29.95, 3.13 26.79 C0.79 23.62, -0.45 18.7, 0.04 15.01 C0.52 11.32, 2.78 7.2, 6.03 4.65 C9.29 2.1, 17.17 0.43, 19.59 -0.27 C22.01 -0.98, 20.58 0.08, 20.55 0.41 M21.65 -0.21 C25.74 -0.27, 30.34 1.81, 33.25 4.43 C36.17 7.04, 38.49 11.71, 39.14 15.46 C39.79 19.22, 39.44 23.86, 37.16 26.96 C34.89 30.06, 29.72 32.91, 25.48 34.08 C21.24 35.25, 15.56 35.37, 11.73 33.99 C7.91 32.61, 4.52 29.25, 2.55 25.8 C0.58 22.34, -0.89 17.09, -0.07 13.27 C0.75 9.44, 4.06 5.15, 7.47 2.87 C10.89 0.58, 18.06 0.02, 20.41 -0.46 C22.76 -0.94, 21.35 -0.35, 21.56 -0.03" stroke="#000000" stroke-width="1" fill="none"></path></g><g transform="translate(79.14949798583984 39.19671630859375) rotate(0 5.079994201660156 12.5)"><text x="5.079994201660156" y="17.52" font-family="Virgil, Segoe UI Emoji" font-size="20px" fill="#000000" text-anchor="middle" style="white-space: pre;" direction="ltr" dominant-baseline="alphabetic">b</text></g></svg>